<?xml version="1.0" encoding="UTF-8"?>
<!DOCTYPE svg PUBLIC "-//W3C//DTD SVG 1.1//EN" "http://www.w3.org/Graphics/SVG/1.1/DTD/svg11.dtd">
<!-- Creator: CorelDRAW 2019 (64-Bit) -->
<svg xmlns="http://www.w3.org/2000/svg" xml:space="preserve" width="16.6075mm" height="14.55mm" version="1.1" style="shape-rendering:geometricPrecision; text-rendering:geometricPrecision; image-rendering:optimizeQuality; fill-rule:evenodd; clip-rule:evenodd"
viewBox="0 0 13.41 11.75"
 xmlns:xlink="http://www.w3.org/1999/xlink"
 xmlns:xodm="http://www.corel.com/coreldraw/odm/2003">
 <defs>
  <style type="text/css">
   <![CDATA[
    .fil0 {fill:black}
    .fil1 {fill:#14E07D}
   ]]>
  </style>
 </defs>
 <g id="Layer_x0020_1">
  <metadata id="CorelCorpID_0Corel-Layer"/>
  <path class="fil0" d="M11.83 1.44l-8.81 0c-0.87,0 -1.58,0.71 -1.58,1.58l0 7.15c0,0.87 0.71,1.58 1.58,1.58l8.81 0c0.87,0 1.58,-0.71 1.58,-1.58l0 -7.15c-0,-0.87 -0.71,-1.58 -1.58,-1.58zm-8.81 0.59l8.81 0c0.54,0 0.99,0.44 0.99,0.99l0 0.33 -10.78 0 0 -0.33c0,-0.54 0.44,-0.99 0.99,-0.99zm8.81 9.12l-8.81 0c-0.54,0 -0.99,-0.44 -0.99,-0.99l0 -6.23 10.78 0 0 6.23c0,0.54 -0.44,0.99 -0.99,0.99z"/>
  <path class="fil0" d="M1.03 9.54c-0.27,-0.18 -0.43,-0.49 -0.43,-0.82l0 -6.8c0,-0.74 0.6,-1.33 1.33,-1.33l8.46 0c0.37,0 0.7,0.2 0.87,0.53 0.08,0.14 0.26,0.2 0.4,0.12 0.14,-0.08 0.2,-0.26 0.12,-0.4 -0.27,-0.52 -0.81,-0.84 -1.4,-0.84l-8.46 0c-1.06,0 -1.93,0.86 -1.93,1.93l0 6.8c0,0.52 0.26,1.01 0.69,1.31 0.05,0.03 0.11,0.05 0.17,0.05 0.09,0 0.19,-0.05 0.25,-0.13 0.09,-0.14 0.06,-0.32 -0.08,-0.41z"/>
  <path class="fil1" d="M2.7 2.92c0.02,0.02 0.05,0.04 0.07,0.05 0.03,0.01 0.05,0.02 0.08,0.02 0.03,0 0.06,-0.01 0.09,-0.02 0.03,-0.01 0.05,-0.03 0.07,-0.05 0.02,-0.02 0.04,-0.05 0.05,-0.07 0.01,-0.03 0.02,-0.05 0.02,-0.08 0,-0.01 -0,-0.03 -0,-0.04 -0,-0.01 -0.01,-0.03 -0.01,-0.04 -0.01,-0.01 -0.01,-0.03 -0.02,-0.04 -0.01,-0.01 -0.02,-0.02 -0.03,-0.03 -0.05,-0.05 -0.13,-0.08 -0.2,-0.06 -0.01,0 -0.03,0.01 -0.04,0.01 -0.01,0.01 -0.03,0.01 -0.04,0.02 -0.01,0.01 -0.02,0.02 -0.03,0.03 -0.01,0.01 -0.02,0.02 -0.03,0.03 -0.01,0.01 -0.01,0.02 -0.02,0.04 -0.01,0.01 -0.01,0.03 -0.01,0.04 -0,0.01 -0,0.03 -0,0.04 0,0.03 0.01,0.06 0.02,0.08 0.01,0.03 0.03,0.05 0.05,0.07z"/>
  <path class="fil1" d="M3.43 2.97c0.03,0.01 0.05,0.02 0.08,0.02 0.06,0 0.12,-0.02 0.16,-0.07 0.04,-0.04 0.07,-0.1 0.07,-0.16 0,-0.01 -0,-0.03 -0,-0.04 -0,-0.01 -0.01,-0.03 -0.01,-0.04 -0.01,-0.01 -0.01,-0.03 -0.02,-0.04 -0.01,-0.01 -0.02,-0.02 -0.03,-0.03 -0.05,-0.05 -0.13,-0.08 -0.2,-0.06 -0.01,0 -0.03,0.01 -0.04,0.01 -0.01,0.01 -0.03,0.01 -0.04,0.02 -0.01,0.01 -0.02,0.02 -0.03,0.03 -0.04,0.04 -0.07,0.1 -0.07,0.16 0,0.06 0.02,0.12 0.07,0.16 0.02,0.02 0.05,0.04 0.07,0.05z"/>
  <path class="fil1" d="M4.1 2.97c0.03,0.01 0.05,0.02 0.08,0.02 0.03,0 0.06,-0.01 0.09,-0.02 0.03,-0.01 0.05,-0.03 0.07,-0.05 0.04,-0.04 0.07,-0.1 0.07,-0.16 0,-0.01 -0,-0.03 -0,-0.04 -0,-0.01 -0.01,-0.03 -0.01,-0.04 -0.01,-0.01 -0.01,-0.03 -0.02,-0.04 -0.01,-0.01 -0.02,-0.02 -0.03,-0.03 -0.05,-0.05 -0.13,-0.08 -0.2,-0.06 -0.01,0 -0.03,0.01 -0.04,0.01 -0.01,0.01 -0.03,0.01 -0.04,0.02 -0.01,0.01 -0.02,0.02 -0.03,0.03 -0.04,0.04 -0.07,0.1 -0.07,0.16 0,0.06 0.02,0.12 0.07,0.16 0.02,0.02 0.05,0.04 0.07,0.05z"/>
  <path class="fil0" d="M5.35 4.38l-2.49 0c-0.16,0 -0.3,0.13 -0.3,0.3 0,0.16 0.13,0.3 0.3,0.3l2.49 0c0.16,0 0.3,-0.13 0.3,-0.3 0,-0.16 -0.13,-0.3 -0.3,-0.3z"/>
  <path class="fil0" d="M2.86 6.3l1.76 0c0.16,0 0.3,-0.13 0.3,-0.3 0,-0.16 -0.13,-0.3 -0.3,-0.3l-1.76 0c-0.16,0 -0.3,0.13 -0.3,0.3 0,0.16 0.13,0.3 0.3,0.3z"/>
  <path class="fil0" d="M2.86 7.63l1.98 0c0.16,0 0.3,-0.13 0.3,-0.3 0,-0.16 -0.13,-0.3 -0.3,-0.3l-1.98 0c-0.16,0 -0.3,0.13 -0.3,0.3 0,0.16 0.13,0.3 0.3,0.3z"/>
  <path class="fil0" d="M2.86 8.96l1.32 0c0.16,0 0.3,-0.13 0.3,-0.3 0,-0.16 -0.13,-0.3 -0.3,-0.3l-1.32 0c-0.16,0 -0.3,0.13 -0.3,0.3 0,0.16 0.13,0.3 0.3,0.3z"/>
  <path class="fil0" d="M5.35 9.69l-2.49 0c-0.16,0 -0.3,0.13 -0.3,0.3 0,0.16 0.13,0.3 0.3,0.3l2.49 0c0.16,0 0.3,-0.13 0.3,-0.3 0,-0.16 -0.13,-0.3 -0.3,-0.3z"/>
  <path class="fil1" d="M9.43 5.21c-1.17,0 -2.12,0.95 -2.12,2.12 0,0.86 0.52,1.63 1.3,1.96 0.25,0.1 0.53,0.16 0.81,0.16 0.28,0 0.56,-0.06 0.83,-0.16 0.79,-0.33 1.29,-1.1 1.29,-1.96 0,-1.17 -0.95,-2.12 -2.12,-2.12zm-0.52 3.7l-0.18 -1.08 0.73 -0.07 0.7 0.07 -0.18 1.08c-0.36,0.12 -0.73,0.12 -1.07,0zm0.52 -1.99c-0.18,0 -0.33,-0.15 -0.33,-0.33 0,-0.18 0.15,-0.33 0.33,-0.33 0.18,0 0.33,0.15 0.33,0.33 0,0.18 -0.15,0.33 -0.33,0.33zm1.04 1.72l0.16 -0.98c0.01,-0.06 0,-0.12 -0.04,-0.18 -0.04,-0.04 -0.09,-0.07 -0.15,-0.09l-0.77 -0.07c0.31,-0.1 0.55,-0.39 0.55,-0.74 0,-0.43 -0.36,-0.77 -0.77,-0.77 -0.41,0 -0.77,0.36 -0.77,0.77 0,0.36 0.24,0.65 0.56,0.74l-0.77 0.07c-0.06,0 -0.12,0.04 -0.15,0.09 -0.04,0.04 -0.06,0.1 -0.04,0.18l0.16 0.99c-0.41,-0.31 -0.65,-0.8 -0.65,-1.33 0,-0.92 0.76,-1.67 1.67,-1.67 0.92,0 1.64,0.76 1.64,1.67 0,0.52 -0.24,1.01 -0.64,1.32z"/>
 </g>
</svg>
