<?xml version="1.0" encoding="UTF-8"?>
<svg width="61px" height="51px" viewBox="0 0 61 51" version="1.1" xmlns="http://www.w3.org/2000/svg" xmlns:xlink="http://www.w3.org/1999/xlink">
    <!-- Generator: Sketch 58 (84663) - https://sketch.com -->
    <title>online-shop (6)</title>
    <desc>Created with Sketch.</desc>
    <g id="Page-1" stroke="none" stroke-width="1" fill="none" fill-rule="evenodd">
        <g id="Service" transform="translate(-526.000000, -522.000000)" fill-rule="nonzero">
            <g id="5" transform="translate(486.000000, 522.000000)">
                <g id="online-shop-(6)" transform="translate(40.000000, 0.000000)">
                    <path d="M56.7199097,0.0095625 L3.72453472,0.0095625 C1.67072222,0.0095625 0,1.68028472 0,3.73397917 L0,39.6952361 C0,41.7489306 1.67072222,43.4196528 3.72453472,43.4196528 L21.6484375,43.4196528 L20.9234583,49.2196042 L17.9196528,49.2196042 C17.4305486,49.2196042 17.0342361,49.6160347 17.0342361,50.1050208 C17.0342361,50.5940069 17.4305486,50.9904375 17.9196528,50.9904375 L42.5247917,50.9904375 C43.0138958,50.9904375 43.4102083,50.5940069 43.4102083,50.1050208 C43.4102083,49.6160347 43.0138958,49.2196042 42.5247917,49.2196042 L39.5211042,49.2196042 L38.7960069,43.4196528 L56.7199097,43.4196528 C58.7736042,43.4196528 60.4444444,41.7489306 60.4444444,39.6952361 L60.4444444,3.73397917 C60.4444444,1.68028472 58.7737222,0.0095625 56.7199097,0.0095625 Z M22.7081042,49.2196042 L23.4332014,43.4196528 L26.6918889,43.4196528 L27.0115833,44.6981944 C27.380625,46.1742431 28.7009583,47.2049861 30.2223403,47.2049861 C31.7437222,47.2049861 33.0640556,46.1742431 33.4330972,44.6981944 L33.7527917,43.4196528 L37.0114792,43.4196528 L37.7363403,49.2196042 L22.7081042,49.2196042 Z M28.5171458,43.4196528 L31.9271806,43.4196528 L31.7149167,44.2687083 C31.5433819,44.9549653 30.9296111,45.4341528 30.2221042,45.4341528 C29.5145972,45.4341528 28.9009444,44.9548472 28.7292917,44.2687083 L28.5171458,43.4196528 Z M58.6736111,39.6952361 L58.6736111,39.6952361 C58.6736111,40.7724931 57.7971667,41.6488194 56.7199097,41.6488194 L3.72453472,41.6488194 C2.64727778,41.6488194 1.77083333,40.7724931 1.77083333,39.6952361 L1.77083333,3.73397917 C1.77083333,2.65672222 2.64727778,1.78039583 3.72453472,1.78039583 L56.7199097,1.78039583 C57.7971667,1.78039583 58.6736111,2.65672222 58.6736111,3.73397917 L58.6736111,39.6952361 Z" id="Shape" fill="#333333"></path>
                    <path d="M50.0954583,3.79501389 L4.67075,3.79501389 C4.18164583,3.79501389 3.78533333,4.19132639 3.78533333,4.68043056 L3.78533333,38.7489028 C3.78533333,39.2380069 4.18164583,39.6343194 4.67075,39.6343194 L6.56353472,39.6343194 C7.05263889,39.6343194 7.44895139,39.2380069 7.44895139,38.7489028 C7.44906944,38.2599167 7.05263889,37.8634861 6.56365278,37.8634861 L5.55628472,37.8634861 L5.55628472,5.56584722 L50.0954583,5.56584722 C50.5845625,5.56584722 50.980875,5.16941667 50.980875,4.68043056 C50.980875,4.19132639 50.5845625,3.79501389 50.0954583,3.79501389 Z" id="Path" fill="#333333"></path>
                    <path d="M55.7736944,3.79501389 L53.8809097,3.79501389 C53.3918056,3.79501389 52.9954931,4.19132639 52.9954931,4.68043056 C52.9954931,5.16941667 53.3918056,5.56584722 53.8809097,5.56584722 L54.8882778,5.56584722 L54.8882778,37.8634861 L10.3489861,37.8634861 C9.85988194,37.8634861 9.46356944,38.2599167 9.46356944,38.7489028 C9.46356944,39.2380069 9.85988194,39.6343194 10.3489861,39.6343194 L55.7735764,39.6343194 C56.2626806,39.6343194 56.6589931,39.2380069 56.6589931,38.7489028 L56.6589931,4.68043056 C56.6589931,4.19132639 56.2626806,3.79501389 55.7736944,3.79501389 Z" id="Path" fill="#333333"></path>
                    <path d="M42.2756944,13.5981111 C42.1165556,13.3947014 41.8765486,13.2709792 41.6187153,13.2592917 L20.7991458,12.3128403 C20.7828542,12.3121319 20.7669167,12.3117778 20.7505069,12.3120139 C20.6272569,11.9074375 20.3668264,11.5565764 20.0143125,11.3214097 L17.4646667,9.62164583 C17.0578472,9.35047222 16.5080625,9.46038194 16.2368889,9.86731944 C15.9657153,10.2742569 16.075625,10.8239236 16.4824444,11.0950972 L19.0319722,12.794625 C19.0440139,12.8026528 19.0528681,12.8148125 19.0568819,12.8287431 L22.3044722,24.19525 C22.4057639,24.5496528 22.5724583,24.8681667 22.7864931,25.1432361 L21.5982639,27.5196944 C21.3122153,28.0916736 21.3422014,28.7578611 21.6784236,29.3018611 C21.800375,29.4991319 21.9550278,29.667125 22.1327014,29.8017083 C21.9001319,30.2077014 21.766375,30.6773264 21.766375,31.1778819 C21.766375,32.7097708 23.0126875,33.9559653 24.5444583,33.9559653 C26.0762292,33.9559653 27.3225417,32.7096528 27.3225417,31.1778819 C27.3225417,30.8226528 27.2547778,30.483125 27.1327083,30.1706319 L35.2049931,30.1706319 C35.0829236,30.483125 35.0151597,30.8226528 35.0151597,31.1778819 C35.0151597,32.7097708 36.2614722,33.9559653 37.7932431,33.9559653 C39.3250139,33.9559653 40.5713264,32.7096528 40.5713264,31.1778819 C40.5713264,30.7335208 40.4659028,30.3135972 40.2796111,29.9407778 C40.4583472,29.7788056 40.5713264,29.5455278 40.5713264,29.2852153 C40.5713264,28.7962292 40.1750139,28.3997986 39.6859097,28.3997986 L23.2362847,28.3997986 C23.2236528,28.3997986 23.2022847,28.3997986 23.1844583,28.370875 C23.1666319,28.3420694 23.1761944,28.3230625 23.1818611,28.3116111 L24.2764722,26.1225069 C24.4992431,26.1797639 24.7313403,26.2106944 24.9688681,26.2106944 C25.0783056,26.2106944 25.1888056,26.2042014 25.3000139,26.1912153 L37.7414167,24.7275625 C39.3482708,24.5384375 40.6410972,23.3456042 40.9584306,21.7589375 L42.4466389,14.3174236 C42.4972847,14.0641944 42.4348333,13.8015208 42.2756944,13.5981111 Z M37.7930069,30.1708681 C38.3484583,30.1708681 38.8002569,30.6227847 38.8002569,31.1781181 C38.8002569,31.7335694 38.3484583,32.1853681 37.7930069,32.1853681 C37.2375556,32.1853681 36.7857569,31.7335694 36.7857569,31.1781181 C36.7857569,30.6226667 37.2375556,30.1708681 37.7930069,30.1708681 Z M24.5442222,30.1708681 C25.0996736,30.1708681 25.5514722,30.6226667 25.5514722,31.1781181 C25.5514722,31.7335694 25.0996736,32.1853681 24.5442222,32.1853681 C23.9887708,32.1853681 23.5369722,31.7335694 23.5369722,31.1781181 C23.5369722,30.6226667 23.9887708,30.1708681 24.5442222,30.1708681 Z M22.3729444,17.9901319 L21.2633403,14.1066944 L24.8032361,14.2676042 L25.4170069,17.9901319 L22.3729444,17.9901319 Z M25.0931806,24.4325417 C24.5994722,24.490625 24.1431875,24.1861597 24.0069514,23.7088611 L22.8789306,19.7609653 L25.7089583,19.7609653 L26.4528264,24.2725764 L25.0931806,24.4325417 Z M30.2832569,23.8219583 L28.2135069,24.0655069 L27.503875,19.7610833 L30.2832569,19.7610833 L30.2832569,23.8219583 Z M30.2832569,17.9901319 L27.2118056,17.9901319 L26.6116111,14.3498889 L30.2832569,14.5168194 L30.2832569,17.9901319 Z M34.7672431,23.2943681 L32.0540903,23.6135903 L32.0540903,19.7609653 L35.0870556,19.7609653 L34.7672431,23.2943681 Z M35.247375,17.9901319 L32.0540903,17.9901319 L32.0540903,14.5972153 L35.5401528,14.7556458 L35.247375,17.9901319 Z M39.2218333,21.4118542 C39.055375,22.2439097 38.3772639,22.8697222 37.5344653,22.9688889 L36.5644028,23.0830486 L36.8650903,19.7610833 L39.5519167,19.7610833 L39.2218333,21.4118542 Z M39.9062014,17.9901319 L37.0255278,17.9901319 L37.3109861,14.8361597 L40.5079306,14.9814861 L39.9062014,17.9901319 Z" id="Shape" fill="#00B05C"></path>
                </g>
            </g>
        </g>
    </g>
</svg>