<?xml version="1.0" encoding="UTF-8"?>
<!DOCTYPE svg PUBLIC "-//W3C//DTD SVG 1.1//EN" "http://www.w3.org/Graphics/SVG/1.1/DTD/svg11.dtd">
<!-- Creator: CorelDRAW 2019 (64-Bit) -->
<svg xmlns="http://www.w3.org/2000/svg" xml:space="preserve" width="13.6114mm" height="14.55mm" version="1.1" style="shape-rendering:geometricPrecision; text-rendering:geometricPrecision; image-rendering:optimizeQuality; fill-rule:evenodd; clip-rule:evenodd"
viewBox="0 0 8.78 9.38"
 xmlns:xlink="http://www.w3.org/1999/xlink"
 xmlns:xodm="http://www.corel.com/coreldraw/odm/2003">
 <defs>
  <style type="text/css">
   <![CDATA[
    .fil0 {fill:black}
    .fil1 {fill:#14E07D}
   ]]>
  </style>
 </defs>
 <g id="Layer_x0020_1">
  <metadata id="CorelCorpID_0Corel-Layer"/>
  <g id="_2136544232576">
   <path class="fil0" d="M4.54 6.51l-0.3 0c-0.08,0 -0.15,0.07 -0.15,0.15 0,0.08 0.07,0.15 0.15,0.15l0.3 0c0.08,0 0.15,-0.07 0.15,-0.15 0,-0.08 -0.07,-0.15 -0.15,-0.15l0 0z"/>
   <path class="fil0" d="M8.02 0.65l0 -0.2c0,-0.25 -0.2,-0.45 -0.45,-0.45l-0.61 0c-0.08,0 -0.15,0.07 -0.15,0.15 0,0.08 0.07,0.15 0.15,0.15l0.61 0c0.08,0 0.15,0.07 0.15,0.15l0 1.06 -6.66 0 0 -1.06c0,-0.08 0.07,-0.15 0.15,-0.15l4.39 0c0.08,0 0.15,-0.07 0.15,-0.15 0,-0.08 -0.07,-0.15 -0.15,-0.15l-4.39 0c-0.25,0 -0.45,0.2 -0.45,0.45l0 0.2c-0.45,0.13 -0.76,0.55 -0.76,1.01l-0 4.84c0,0.58 0.47,1.06 1.06,1.06l2.18 0 -0.52 1.51 -0.15 0c-0.08,0 -0.15,0.07 -0.15,0.15 0,0.08 0.07,0.15 0.15,0.15l3.63 0c0.08,0 0.15,-0.07 0.15,-0.15 0,-0.08 -0.07,-0.15 -0.15,-0.15l-0.15 0 -0.52 -1.51 2.18 0c0.58,0 1.06,-0.47 1.06,-1.06l0 -4.84c-0,-0.47 -0.31,-0.88 -0.76,-1.01l0 0zm-0.3 1.17l0 3.03c0,0.08 -0.07,0.15 -0.15,0.15l-6.36 0c-0.08,0 -0.15,-0.07 -0.15,-0.15l0 -3.03 6.66 0zm-6.96 -0.84l0 3.87c0,0.25 0.2,0.45 0.45,0.45l6.36 0c0.25,0 0.45,-0.2 0.45,-0.45l0 -3.87c0.28,0.12 0.45,0.39 0.45,0.69 0,0 0,0 0,0l0 4.09 -8.17 0 0 -4.09c0,-0 0,-0 0,-0 0,-0.3 0.18,-0.57 0.45,-0.69l0 0zm4.98 8.1l-2.69 0 0.52 -1.51 1.65 0 0.52 1.51zm1.98 -1.82l-6.66 0c-0.42,0 -0.76,-0.34 -0.76,-0.76l0 -0.45 8.17 0 0 0.45c0,0.42 -0.34,0.76 -0.76,0.76l0 0z"/>
   <path class="fil0" d="M6.2 0.3l0.15 0c0.08,0 0.15,-0.07 0.15,-0.15 0,-0.08 -0.07,-0.15 -0.15,-0.15l-0.15 0c-0.08,0 -0.15,0.07 -0.15,0.15 0,0.08 0.07,0.15 0.15,0.15z"/>
   <circle class="fil1" cx="6.96" cy="0.91" r="0.3"/>
   <circle class="fil1" cx="6.05" cy="0.91" r="0.3"/>
   <circle class="fil1" cx="5.14" cy="0.91" r="0.3"/>
   <path class="fil0" d="M1.66 0.76c-0.08,0 -0.15,0.07 -0.15,0.15 0,0.08 0.07,0.15 0.15,0.15l2.57 0c0.08,0 0.15,-0.07 0.15,-0.15 0,-0.08 -0.07,-0.15 -0.15,-0.15l-2.57 0z"/>
   <path class="fil1" d="M1.69 4.02c0.03,0.04 0.07,0.07 0.13,0.07 0,0 0,0 0,0 0.03,0 0.06,-0.01 0.08,-0.03 0.04,-0.03 0.07,-0.08 0.07,-0.13 0,-0.03 -0.01,-0.06 -0.02,-0.08l-0.25 -0.37 0.25 -0.37c0.01,-0.02 0.02,-0.05 0.02,-0.07 0,-0.08 -0.07,-0.15 -0.15,-0.15 -0.05,0 -0.09,0.02 -0.12,0.06l-0.3 0.45c-0.02,0.02 -0.02,0.05 -0.02,0.08 0,0.03 0.01,0.06 0.02,0.08l0.3 0.45z"/>
   <path class="fil1" d="M2.94 4.06c0.02,0.02 0.05,0.03 0.08,0.03 0,0 0,0 0,0 0.05,-0 0.1,-0.03 0.13,-0.07l0.3 -0.45c0.02,-0.02 0.02,-0.05 0.02,-0.08 0,-0.03 -0.01,-0.06 -0.02,-0.08l-0.3 -0.45c-0.03,-0.05 -0.08,-0.08 -0.13,-0.08 -0.08,0 -0.15,0.07 -0.15,0.15 0,0.03 0.01,0.07 0.03,0.09l0.25 0.37 -0.25 0.37c-0.02,0.02 -0.02,0.05 -0.02,0.08 0,0.05 0.03,0.1 0.07,0.13l0 0z"/>
   <path class="fil1" d="M2.23 4.21c0.01,0 0.01,0 0.02,0 0.01,0 0.01,-0 0.02,-0 0,0 0,0 0,0 0.07,0 0.13,-0.05 0.15,-0.11l0.3 -1.17c0,-0.01 0,-0.03 0,-0.04 0,-0.08 -0.07,-0.15 -0.15,-0.15 -0.07,0 -0.13,0.05 -0.15,0.11l-0.3 1.17c-0,0.01 -0.01,0.03 -0.01,0.04 0,0.07 0.05,0.13 0.11,0.15l0 0z"/>
   <path class="fil0" d="M4.39 4.69l2.57 0c0.25,0 0.45,-0.2 0.45,-0.45l0 -1.51c0,-0.25 -0.2,-0.45 -0.45,-0.45l-2.57 0c-0.25,0 -0.45,0.2 -0.45,0.45l0 1.51c0,0.25 0.2,0.45 0.45,0.45zm0.84 -0.76l-0.19 -0.29 0.45 -0.55c0.03,-0.03 0.07,-0.05 0.12,-0.05 0,-0 0.01,-0 0.01,-0 0.04,0 0.08,0.02 0.1,0.05l0.76 0.85 -1.25 0zm0.01 -0.9l-0.79 0 0.39 0.96c0.03,-0.03 0.07,-0.05 0.11,-0.05 0,0 0.01,0 0.01,0 0.05,0 0.09,0.03 0.11,0.07l0.16 -0.99zm-0.85 -0.46l2.57 0c0.08,0 0.15,0.07 0.15,0.15l0 1.42 -0.71 -0.8c-0.09,-0.1 -0.21,-0.15 -0.34,-0.15 -0,0 -0,0 -0,0l0 0c-0.13,0 -0.26,0.06 -0.35,0.16l-0.4 0.48c-0.09,-0.12 -0.22,-0.19 -0.37,-0.19 -0.12,0 -0.24,0.05 -0.32,0.13l-0.39 0.39 0 -1.45c0,-0.08 0.07,-0.15 0.15,-0.15z"/>
   <circle class="fil0" cx="4.99" cy="3.18" r="0.3"/>
  </g>
 </g>
</svg>
