<?xml version="1.0" encoding="UTF-8"?>
<svg width="53px" height="53px" viewBox="0 0 53 53" version="1.1" xmlns="http://www.w3.org/2000/svg" xmlns:xlink="http://www.w3.org/1999/xlink">
    <!-- Generator: Sketch 58 (84663) - https://sketch.com -->
    <title>data-science</title>
    <desc>Created with Sketch.</desc>
    <g id="Page-1" stroke="none" stroke-width="1" fill="none" fill-rule="evenodd">
        <g id="Service" transform="translate(-1317.000000, -228.000000)" fill-rule="nonzero">
            <g id="Group-12" transform="translate(1274.000000, 228.000000)">
                <g id="data-science" transform="translate(43.000000, 0.000000)">
                    <path d="M46.0491803,13.0327869 C46.2794262,13.0327869 46.5009836,12.9415574 46.663459,12.7782131 L50.1388689,9.30280328 C50.3022131,9.14032787 50.3934426,8.91877049 50.3934426,8.68852459 L50.3934426,5.0532459 C51.4030492,4.69354098 52.1311475,3.73780328 52.1311475,2.60655738 C52.1311475,1.16947541 50.9616721,0 49.5245902,0 C48.0875082,0 46.9180328,1.16947541 46.9180328,2.60655738 C46.9180328,3.73780328 47.647,4.69354098 48.6557377,5.0532459 L48.6557377,8.32881967 L45.6894754,11.295082 L35.1598525,11.295082 C34.5290656,10.9049672 33.8835082,10.5417869 33.213623,10.2385574 C33.1501967,10.2098852 33.0832951,10.1968525 33.0163934,10.1846885 L33.0163934,6.44167213 L35.9826557,3.47540984 L37.5205246,3.47540984 C37.8810984,4.48414754 38.8359672,5.21311475 39.9672131,5.21311475 C41.4042951,5.21311475 42.5737705,4.04363934 42.5737705,2.60655738 C42.5737705,1.16947541 41.4042951,0 39.9672131,0 C38.8359672,0 37.8802295,0.728967213 37.5205246,1.73770492 L35.6229508,1.73770492 C35.3927049,1.73770492 35.1711475,1.82893443 35.0086721,1.99227869 L31.5332623,5.46768852 C31.3707869,5.63016393 31.2786885,5.85172131 31.2786885,6.08196721 L31.2786885,11.4427869 L30.704377,12.0561967 C30.1665574,11.878082 29.6174426,11.7312459 29.0605082,11.6165574 L28.5530984,9.44268852 C28.4688197,9.08037705 28.1621148,8.81190164 27.7919836,8.77540984 C27.5000492,8.7467377 27.2194098,8.7467377 26.9344262,8.73283607 L26.9344262,5.0532459 C27.9440328,4.69354098 28.6721311,3.73780328 28.6721311,2.60655738 C28.6721311,1.16947541 27.5026557,0 26.0655738,0 C24.6284918,0 23.4590164,1.16947541 23.4590164,2.60655738 C23.4590164,3.73780328 24.1879836,4.69354098 25.1967213,5.0532459 L25.1967213,8.73283607 C24.9117377,8.74760656 24.6302295,8.7467377 24.3391639,8.77540984 C23.9690328,8.81190164 23.6623279,9.08037705 23.5780492,9.44268852 L23.0706393,11.6165574 C22.5145738,11.7312459 21.9645902,11.878082 21.4276393,12.0561967 L20.852459,11.441918 L20.852459,6.08196721 C20.852459,5.85172131 20.7612295,5.63016393 20.5978852,5.46768852 L17.1224754,1.99227869 C16.96,1.82893443 16.7384426,1.73770492 16.5081967,1.73770492 L14.610623,1.73770492 C14.250918,0.728967213 13.2951803,0 12.1639344,0 C10.7268525,0 9.55737705,1.16947541 9.55737705,2.60655738 C9.55737705,4.04363934 10.7268525,5.21311475 12.1639344,5.21311475 C13.2951803,5.21311475 14.250918,4.48414754 14.610623,3.47540984 L16.1484918,3.47540984 L19.1147541,6.44167213 L19.1147541,10.1846885 C19.0487213,10.1977213 18.9818197,10.2098852 18.9175246,10.2385574 C18.2476393,10.5417869 17.6029508,10.9049672 16.9712951,11.295082 L6.44167213,11.295082 L3.47540984,8.32881967 L3.47540984,5.0532459 C4.48501639,4.69354098 5.21311475,3.73780328 5.21311475,2.60655738 C5.21311475,1.16947541 4.04363934,0 2.60655738,0 C1.16947541,0 0,1.16947541 0,2.60655738 C0,3.73780328 0.728967213,4.69354098 1.73770492,5.0532459 L1.73770492,8.68852459 C1.73770492,8.91877049 1.82893443,9.14032787 1.99227869,9.30280328 L5.46768852,12.7782131 C5.63103279,12.9415574 5.85172131,13.0327869 6.08196721,13.0327869 L15.6367377,13.0327869 L16.2449344,15.034623 C15.8191967,15.4143115 15.4134426,15.8191967 15.034623,16.2449344 L12.9285246,15.6045902 C12.5740328,15.4959836 12.1882623,15.6254426 11.9710492,15.9278033 C11.6348033,16.3952459 11.3211475,16.8791967 11.0318197,17.3770492 L7.65893443,17.3770492 C7.30009836,16.3683115 6.34436066,15.6393443 5.21311475,15.6393443 C3.77603279,15.6393443 2.60655738,16.8088197 2.60655738,18.2459016 C2.60655738,19.6829836 3.77603279,20.852459 5.21311475,20.852459 C6.34436066,20.852459 7.30009836,20.1234918 7.65980328,19.1147541 L10.1846885,19.1147541 C10.1299508,19.4023443 10.2159672,19.7029672 10.4366557,19.9097541 L12.0561967,21.4267705 C11.878082,21.9645902 11.7312459,22.5137049 11.6165574,23.0706393 L9.44268852,23.5780492 C9.08037705,23.6623279 8.81190164,23.9690328 8.77540984,24.3391639 C8.7467377,24.6310984 8.7467377,24.91 8.73196721,25.1967213 L5.0532459,25.1967213 C4.69354098,24.1879836 3.73780328,23.4590164 2.60655738,23.4590164 C1.16947541,23.4590164 0,24.6284918 0,26.0655738 C0,27.5026557 1.16947541,28.6721311 2.60655738,28.6721311 C3.73780328,28.6721311 4.69354098,27.9431639 5.0532459,26.9344262 L8.73283607,26.9344262 C8.74760656,27.2211475 8.74760656,27.5000492 8.77627869,27.7919836 C8.81277049,28.1621148 9.0812459,28.4688197 9.44355738,28.5530984 L11.6174262,29.0605082 C11.7321148,29.6165738 11.8789508,30.1665574 12.0570656,30.7035082 L10.4375246,32.2205246 C10.2168361,32.4273115 10.1308197,32.7279344 10.1855574,33.0163934 L7.66067213,33.0163934 C7.30009836,32.0076557 6.34436066,31.2786885 5.21311475,31.2786885 C3.77603279,31.2786885 2.60655738,32.4481639 2.60655738,33.8852459 C2.60655738,35.3223279 3.77603279,36.4918033 5.21311475,36.4918033 C6.34436066,36.4918033 7.30009836,35.7628361 7.65980328,34.7540984 L11.0326885,34.7540984 C11.3211475,35.251082 11.6339344,35.7350328 11.9710492,36.2024754 C12.1882623,36.5039672 12.5705574,36.6342951 12.9293934,36.5256885 L15.0354918,35.8862131 C15.4151803,36.3128197 15.8200656,36.7177049 16.2458033,37.0965246 L15.6358689,39.0983607 L6.08196721,39.0983607 C5.85172131,39.0983607 5.63016393,39.1895902 5.46768852,39.3529344 L1.99227869,42.8283443 C1.82980328,42.9908197 1.73770492,43.212377 1.73770492,43.442623 L1.73770492,47.0779016 C0.728967213,47.4376066 0,48.3933443 0,49.5245902 C0,50.9616721 1.16947541,52.1311475 2.60655738,52.1311475 C4.04363934,52.1311475 5.21311475,50.9616721 5.21311475,49.5245902 C5.21311475,48.3933443 4.48414754,47.4376066 3.47540984,47.0779016 L3.47540984,43.8023279 L6.44167213,40.8360656 L16.9712951,40.8360656 C17.602082,41.2253115 18.2467705,41.5893607 18.9175246,41.8925902 C18.9809508,41.9212623 19.0478525,41.9342951 19.1147541,41.9473279 L19.1147541,45.6894754 L16.1484918,48.6557377 L14.610623,48.6557377 C14.250918,47.647 13.2951803,46.9180328 12.1639344,46.9180328 C10.7268525,46.9180328 9.55737705,48.0875082 9.55737705,49.5245902 C9.55737705,50.9616721 10.7268525,52.1311475 12.1639344,52.1311475 C13.2951803,52.1311475 14.250918,51.4021803 14.610623,50.3934426 L16.5081967,50.3934426 C16.7384426,50.3934426 16.96,50.3022131 17.1224754,50.1388689 L20.5978852,46.663459 C20.7612295,46.5009836 20.852459,46.2794262 20.852459,46.0491803 L20.852459,40.6883607 L21.4267705,40.0749508 C21.9645902,40.2530656 22.5137049,40.3999016 23.0706393,40.5145902 L23.5780492,42.688459 C23.6623279,43.0507705 23.9690328,43.3192459 24.3391639,43.3557377 C24.6310984,43.3844098 24.91,43.3844098 25.1967213,43.3991803 L25.1967213,47.0787705 C24.1879836,47.4384754 23.4590164,48.3942131 23.4590164,49.525459 C23.4590164,50.962541 24.6284918,52.1320164 26.0655738,52.1320164 C27.5026557,52.1320164 28.6721311,50.962541 28.6721311,49.525459 C28.6721311,48.3942131 27.9431639,47.4384754 26.9344262,47.0787705 L26.9344262,43.3991803 C27.2211475,43.3844098 27.500918,43.3844098 27.7919836,43.3557377 C28.1621148,43.3192459 28.4688197,43.0507705 28.5530984,42.688459 L29.0605082,40.5145902 C29.6165738,40.3999016 30.1665574,40.2530656 30.7035082,40.0749508 L31.2786885,40.6892295 L31.2786885,46.0491803 C31.2786885,46.2794262 31.369918,46.5009836 31.5332623,46.663459 L35.0086721,50.1388689 C35.1720164,50.3022131 35.3927049,50.3934426 35.6229508,50.3934426 L37.5205246,50.3934426 C37.8802295,51.4021803 38.8359672,52.1311475 39.9672131,52.1311475 C41.4042951,52.1311475 42.5737705,50.9616721 42.5737705,49.5245902 C42.5737705,48.0875082 41.4042951,46.9180328 39.9672131,46.9180328 C38.8359672,46.9180328 37.8802295,47.647 37.5205246,48.6557377 L35.9826557,48.6557377 L33.0163934,45.6894754 L33.0163934,41.9473279 C33.0824262,41.9342951 33.1493279,41.9221311 33.213623,41.893459 C33.8835082,41.5902295 34.5281967,41.2270492 35.1598525,40.8369344 L45.6894754,40.8369344 L48.6557377,43.8023279 L48.6557377,47.0779016 C47.647,47.4376066 46.9180328,48.3933443 46.9180328,49.5245902 C46.9180328,50.9616721 48.0875082,52.1311475 49.5245902,52.1311475 C50.9616721,52.1311475 52.1311475,50.9616721 52.1311475,49.5245902 C52.1311475,48.3933443 51.4021803,47.4376066 50.3934426,47.0779016 L50.3934426,43.442623 C50.3934426,43.212377 50.3022131,42.9908197 50.1388689,42.8283443 L46.663459,39.3529344 C46.5009836,39.1895902 46.2794262,39.0983607 46.0491803,39.0983607 L36.4944098,39.0983607 L35.8862131,37.0965246 C36.3128197,36.7168361 36.7177049,36.3119508 37.0965246,35.8862131 L39.2017541,36.5265574 C39.5571148,36.6342951 39.9428852,36.5048361 40.1592295,36.2033443 C40.4972131,35.7359016 40.81,35.2519508 41.0993279,34.7540984 L44.4722131,34.7540984 C44.831918,35.7628361 45.7876557,36.4918033 46.9189016,36.4918033 C48.3559836,36.4918033 49.525459,35.3223279 49.525459,33.8852459 C49.525459,32.4481639 48.3559836,31.2786885 46.9189016,31.2786885 C45.7876557,31.2786885 44.831918,32.0076557 44.4722131,33.0163934 L41.9473279,33.0163934 C42.0020656,32.7288033 41.9160492,32.4281803 41.6953607,32.2213934 L40.0758197,30.704377 C40.2539344,30.1665574 40.4007705,29.6174426 40.515459,29.0605082 L42.6893279,28.5530984 C43.0516393,28.4688197 43.3201148,28.1621148 43.3566066,27.7919836 C43.3852787,27.5000492 43.3852787,27.2211475 43.4000492,26.9344262 L47.0796393,26.9344262 C47.4393443,27.9431639 48.395082,28.6721311 49.5263279,28.6721311 C50.9634098,28.6721311 52.1328852,27.5026557 52.1328852,26.0655738 C52.1328852,24.6284918 50.9634098,23.4590164 49.5263279,23.4590164 C48.395082,23.4590164 47.4393443,24.1879836 47.0796393,25.1967213 L43.3991803,25.1967213 C43.3844098,24.91 43.3844098,24.6302295 43.3557377,24.3391639 C43.3192459,23.9690328 43.0507705,23.6623279 42.688459,23.5780492 L40.5145902,23.0706393 C40.3999016,22.5145738 40.2530656,21.9645902 40.0749508,21.4276393 L41.6944918,19.910623 C41.9151803,19.7038361 42.0011967,19.4032131 41.946459,19.1147541 L44.4713443,19.1147541 C44.8310492,20.1234918 45.7867869,20.852459 46.9180328,20.852459 C48.3551148,20.852459 49.5245902,19.6829836 49.5245902,18.2459016 C49.5245902,16.8088197 48.3551148,15.6393443 46.9180328,15.6393443 C45.7867869,15.6393443 44.8310492,16.3683115 44.4713443,17.3770492 L41.098459,17.3770492 C40.81,16.8800656 40.4972131,16.3961148 40.1600984,15.9286721 C39.9428852,15.6271803 39.5579836,15.4968525 39.2017541,15.605459 L37.0956557,16.2449344 C36.7159672,15.8183279 36.311082,15.4134426 35.8853443,15.034623 L36.493541,13.0327869 L46.0491803,13.0327869 Z M49.5245902,1.73770492 C50.0033279,1.73770492 50.3934426,2.12781967 50.3934426,2.60655738 C50.3934426,3.08529508 50.0033279,3.47540984 49.5245902,3.47540984 C49.0458525,3.47540984 48.6557377,3.08529508 48.6557377,2.60655738 C48.6557377,2.12781967 49.0458525,1.73770492 49.5245902,1.73770492 Z M39.9672131,1.73770492 C40.4459508,1.73770492 40.8360656,2.12781967 40.8360656,2.60655738 C40.8360656,3.08529508 40.4459508,3.47540984 39.9672131,3.47540984 C39.4884754,3.47540984 39.0983607,3.08529508 39.0983607,2.60655738 C39.0983607,2.12781967 39.4884754,1.73770492 39.9672131,1.73770492 Z M12.1639344,3.47540984 C11.6851967,3.47540984 11.295082,3.08529508 11.295082,2.60655738 C11.295082,2.12781967 11.6851967,1.73770492 12.1639344,1.73770492 C12.6426721,1.73770492 13.0327869,2.12781967 13.0327869,2.60655738 C13.0327869,3.08529508 12.6426721,3.47540984 12.1639344,3.47540984 Z M2.60655738,1.73770492 C3.08529508,1.73770492 3.47540984,2.12781967 3.47540984,2.60655738 C3.47540984,3.08529508 3.08529508,3.47540984 2.60655738,3.47540984 C2.12781967,3.47540984 1.73770492,3.08529508 1.73770492,2.60655738 C1.73770492,2.12781967 2.12781967,1.73770492 2.60655738,1.73770492 Z M5.21311475,19.1147541 C4.73437705,19.1147541 4.3442623,18.7246393 4.3442623,18.2459016 C4.3442623,17.7671639 4.73437705,17.3770492 5.21311475,17.3770492 C5.69185246,17.3770492 6.08196721,17.7671639 6.08196721,18.2459016 C6.08196721,18.7246393 5.69185246,19.1147541 5.21311475,19.1147541 Z M5.21311475,34.7540984 C4.73437705,34.7540984 4.3442623,34.3639836 4.3442623,33.8852459 C4.3442623,33.4065082 4.73437705,33.0163934 5.21311475,33.0163934 C5.69185246,33.0163934 6.08196721,33.4065082 6.08196721,33.8852459 C6.08196721,34.3639836 5.69185246,34.7540984 5.21311475,34.7540984 Z M2.60655738,50.3934426 C2.12781967,50.3934426 1.73770492,50.0033279 1.73770492,49.5245902 C1.73770492,49.0458525 2.12781967,48.6557377 2.60655738,48.6557377 C3.08529508,48.6557377 3.47540984,49.0458525 3.47540984,49.5245902 C3.47540984,50.0033279 3.08529508,50.3934426 2.60655738,50.3934426 Z M12.1639344,50.3934426 C11.6851967,50.3934426 11.295082,50.0033279 11.295082,49.5245902 C11.295082,49.0458525 11.6851967,48.6557377 12.1639344,48.6557377 C12.6426721,48.6557377 13.0327869,49.0458525 13.0327869,49.5245902 C13.0327869,50.0033279 12.6426721,50.3934426 12.1639344,50.3934426 Z M39.9672131,48.6557377 C40.4459508,48.6557377 40.8360656,49.0458525 40.8360656,49.5245902 C40.8360656,50.0033279 40.4459508,50.3934426 39.9672131,50.3934426 C39.4884754,50.3934426 39.0983607,50.0033279 39.0983607,49.5245902 C39.0983607,49.0458525 39.4884754,48.6557377 39.9672131,48.6557377 Z M49.5245902,50.3934426 C49.0458525,50.3934426 48.6557377,50.0033279 48.6557377,49.5245902 C48.6557377,49.0458525 49.0458525,48.6557377 49.5245902,48.6557377 C50.0033279,48.6557377 50.3934426,49.0458525 50.3934426,49.5245902 C50.3934426,50.0033279 50.0033279,50.3934426 49.5245902,50.3934426 Z M46.9180328,33.0163934 C47.3967705,33.0163934 47.7868852,33.4065082 47.7868852,33.8852459 C47.7868852,34.3639836 47.3967705,34.7540984 46.9180328,34.7540984 C46.4392951,34.7540984 46.0491803,34.3639836 46.0491803,33.8852459 C46.0491803,33.4065082 46.4392951,33.0163934 46.9180328,33.0163934 Z M46.9180328,17.3770492 C47.3967705,17.3770492 47.7868852,17.7671639 47.7868852,18.2459016 C47.7868852,18.7246393 47.3967705,19.1147541 46.9180328,19.1147541 C46.4392951,19.1147541 46.0491803,18.7246393 46.0491803,18.2459016 C46.0491803,17.7671639 46.4392951,17.3770492 46.9180328,17.3770492 Z M26.0655738,1.73770492 C26.5443115,1.73770492 26.9344262,2.12781967 26.9344262,2.60655738 C26.9344262,3.08529508 26.5443115,3.47540984 26.0655738,3.47540984 C25.5868361,3.47540984 25.1967213,3.08529508 25.1967213,2.60655738 C25.1967213,2.12781967 25.5868361,1.73770492 26.0655738,1.73770492 Z M2.60655738,26.9344262 C2.12781967,26.9344262 1.73770492,26.5443115 1.73770492,26.0655738 C1.73770492,25.5868361 2.12781967,25.1967213 2.60655738,25.1967213 C3.08529508,25.1967213 3.47540984,25.5868361 3.47540984,26.0655738 C3.47540984,26.5443115 3.08529508,26.9344262 2.60655738,26.9344262 Z M26.0655738,50.3934426 C25.5868361,50.3934426 25.1967213,50.0033279 25.1967213,49.5245902 C25.1967213,49.0458525 25.5868361,48.6557377 26.0655738,48.6557377 C26.5443115,48.6557377 26.9344262,49.0458525 26.9344262,49.5245902 C26.9344262,50.0033279 26.5443115,50.3934426 26.0655738,50.3934426 Z M49.5245902,25.1967213 C50.0033279,25.1967213 50.3934426,25.5868361 50.3934426,26.0655738 C50.3934426,26.5443115 50.0033279,26.9344262 49.5245902,26.9344262 C49.0458525,26.9344262 48.6557377,26.5443115 48.6557377,26.0655738 C48.6557377,25.5868361 49.0458525,25.1967213 49.5245902,25.1967213 Z M36.1355738,17.7932295 C36.358,18.0643115 36.7220492,18.1737869 37.0591639,18.0721311 L39.1018361,17.4517705 C39.4485082,17.9765574 39.7639016,18.5195902 40.0436721,19.0765246 L38.4736557,20.546623 C38.2173443,20.7864262 38.130459,21.1574262 38.2547049,21.4867213 C38.5501148,22.2730328 38.7699344,23.0949672 38.908082,23.9299344 C38.9654262,24.2757377 39.2252131,24.5537705 39.567541,24.6337049 L41.6762459,25.1254754 C41.6953607,25.4452131 41.704918,25.7588689 41.704918,26.0655738 C41.704918,26.3722787 41.6953607,26.6859344 41.675377,27.0056721 L39.5666721,27.4974426 C39.2243443,27.577377 38.9645574,27.8554098 38.9072131,28.2012131 C38.7690656,29.0361803 38.548377,29.8581148 38.2538361,30.6444262 C38.130459,30.9728525 38.2173443,31.3447213 38.4727869,31.5845246 L40.0428033,33.054623 C39.7621639,33.6132951 39.4467705,34.1563279 39.1009672,34.679377 L37.0591639,34.0581475 C36.722918,33.9564918 36.3588689,34.0659672 36.1355738,34.3370492 C35.5977541,34.9904262 34.9939016,35.5951475 34.337918,36.1347049 C34.0668361,36.358 33.9564918,36.7220492 34.0590164,37.0582951 L34.679377,39.1009672 C34.1545902,39.4476393 33.6115574,39.7630328 33.054623,40.0428033 L31.5845246,38.4727869 C31.3438525,38.2164754 30.9711148,38.1295902 30.6444262,38.2538361 C29.8581148,38.5492459 29.0361803,38.7690656 28.2012131,38.9072131 C27.8554098,38.9645574 27.577377,39.2243443 27.4974426,39.5666721 L27.0056721,41.675377 C26.3670656,41.7144754 25.764082,41.7144754 25.1254754,41.675377 L24.6337049,39.5666721 C24.5537705,39.2243443 24.2757377,38.9645574 23.9299344,38.9072131 C23.0949672,38.7690656 22.2730328,38.548377 21.4867213,38.2538361 C21.1565574,38.1295902 20.7864262,38.2173443 20.546623,38.4727869 L19.0756557,40.0428033 C18.5178525,39.7630328 17.9748197,39.4476393 17.4509016,39.1009672 L18.0721311,37.0591639 C18.1746557,36.722918 18.0643115,36.358 17.7932295,36.1355738 C17.1398525,35.5977541 16.5351311,34.9939016 15.9955738,34.337918 C15.7722787,34.0659672 15.4073607,33.955623 15.0719836,34.0590164 L13.0293115,34.679377 C12.6826393,34.1545902 12.3672459,33.6115574 12.0874754,33.054623 L13.6574918,31.5845246 C13.9138033,31.3447213 14.0006885,30.9737213 13.8764426,30.6444262 C13.5810328,29.8581148 13.3612131,29.0361803 13.2230656,28.2012131 C13.1657213,27.8554098 12.9059344,27.577377 12.5636066,27.4974426 L10.4549016,27.0056721 C10.4357869,26.6859344 10.4262295,26.3722787 10.4262295,26.0655738 C10.4262295,25.7588689 10.4357869,25.4452131 10.4557705,25.1254754 L12.5644754,24.6337049 C12.9068033,24.5537705 13.1665902,24.2757377 13.2239344,23.9299344 C13.362082,23.0949672 13.5827705,22.2730328 13.8773115,21.4867213 C14.0006885,21.1582951 13.9138033,20.7864262 13.6583607,20.546623 L12.0883443,19.0765246 C12.3689836,18.5178525 12.684377,17.9748197 13.0301803,17.4517705 L15.0719836,18.0721311 C15.4090984,18.1755246 15.7722787,18.0651803 15.9955738,17.7932295 C16.5333934,17.1398525 17.1381148,16.5351311 17.7932295,15.9955738 C18.0643115,15.7722787 18.1746557,15.4082295 18.0721311,15.0719836 L17.4517705,13.0293115 C17.9765574,12.6826393 18.5195902,12.3672459 19.0765246,12.0874754 L20.546623,13.6574918 C20.7864262,13.9129344 21.1582951,13.9998197 21.4867213,13.8764426 C22.2730328,13.5810328 23.0949672,13.3612131 23.9299344,13.2230656 C24.2757377,13.1657213 24.5537705,12.9059344 24.6337049,12.5636066 L25.1254754,10.4549016 C25.764082,10.4158033 26.3670656,10.4158033 27.0056721,10.4549016 L27.4974426,12.5636066 C27.577377,12.9059344 27.8554098,13.1657213 28.2012131,13.2230656 C29.0361803,13.3612131 29.8581148,13.5819016 30.6444262,13.8764426 C30.9728525,13.9989508 31.3438525,13.9129344 31.5845246,13.6574918 L33.0554918,12.0874754 C33.6132951,12.3672459 34.1563279,12.6826393 34.6802459,13.0293115 L34.0590164,15.0711148 C33.9564918,15.4073607 34.0668361,15.7722787 34.337918,15.9947049 C34.9921639,16.5333934 35.5960164,17.1381148 36.1355738,17.7932295 L36.1355738,17.7932295 Z" id="Shape" fill="#333333"></path>
                    <path d="M26.0655738,16.5081967 C22.1791967,16.5081967 18.2459016,17.702 18.2459016,19.9836066 L18.2459016,33.0163934 C18.2459016,35.298 22.1791967,36.4918033 26.0655738,36.4918033 C29.9519508,36.4918033 33.8852459,35.298 33.8852459,33.0163934 L33.8852459,19.9836066 C33.8852459,17.702 29.9519508,16.5081967 26.0655738,16.5081967 Z M26.0655738,34.7540984 C22.1149016,34.7540984 19.9836066,33.5211967 19.9836066,33.0163934 L19.9836066,30.9311475 C21.4919344,31.7330984 23.7839672,32.147541 26.0655738,32.147541 C28.3471803,32.147541 30.6392131,31.7330984 32.147541,30.9311475 L32.147541,33.0163934 C32.147541,33.5211967 30.0162459,34.7540984 26.0655738,34.7540984 Z M26.0655738,30.4098361 C22.1149016,30.4098361 19.9836066,29.1769344 19.9836066,28.6721311 L19.9836066,26.5868852 C21.4919344,27.3888361 23.7839672,27.8032787 26.0655738,27.8032787 C28.3471803,27.8032787 30.6392131,27.3888361 32.147541,26.5868852 L32.147541,28.6721311 C32.147541,29.1769344 30.0162459,30.4098361 26.0655738,30.4098361 Z M26.0655738,26.0655738 C22.1149016,26.0655738 19.9836066,24.8326721 19.9836066,24.3278689 L19.9836066,22.242623 C21.4919344,23.0445738 23.7839672,23.4590164 26.0655738,23.4590164 C28.3471803,23.4590164 30.6392131,23.0445738 32.147541,22.242623 L32.147541,24.3278689 C32.147541,24.8326721 30.0162459,26.0655738 26.0655738,26.0655738 Z M26.0655738,21.7213115 C22.1149016,21.7213115 19.9836066,20.4884098 19.9836066,19.9836066 C19.9836066,19.4788033 22.1149016,18.2459016 26.0655738,18.2459016 C30.0162459,18.2459016 32.147541,19.4788033 32.147541,19.9836066 C32.147541,20.4884098 30.0162459,21.7213115 26.0655738,21.7213115 Z" id="Shape" fill="#00B05C"></path>
                </g>
            </g>
        </g>
    </g>
</svg>