<?xml version="1.0" encoding="UTF-8"?>
<svg width="63px" height="56px" viewBox="0 0 63 56" version="1.1" xmlns="http://www.w3.org/2000/svg" xmlns:xlink="http://www.w3.org/1999/xlink">
    <!-- Generator: Sketch 58 (84663) - https://sketch.com -->
    <title>Group 12</title>
    <desc>Created with Sketch.</desc>
    <g id="Page-1" stroke="none" stroke-width="1" fill="none" fill-rule="evenodd">
        <g id="Service" transform="translate(-525.000000, -228.000000)" fill-rule="nonzero">
            <g id="Group-12" transform="translate(525.000000, 228.000000)">
                <g id="web-(2)">
                    <g id="Group">
                        <path d="M3.76380504,56 L59.1480697,56 C61.2256738,55.9975208 62.9093165,54.3076146 62.9118747,52.2221927 L62.9118747,3.77780729 C62.9093165,1.69238542 61.2256738,0.00247916667 59.1479815,8.52651283e-14 L3.76380504,8.52651283e-14 C1.68611268,0.00247916667 0.00246997776,1.69238542 0,3.77780729 L0,52.2222812 C0.00246997776,54.3076146 1.68611268,55.9975208 3.76380504,56 Z M59.1479815,54.4888594 L3.76380504,54.4888594 C2.5166427,54.4888594 1.50553966,53.4739948 1.50553966,52.2221927 L1.50553966,9.33330382 L61.4063351,9.33330382 L61.4063351,52.2221927 C61.4063351,53.4740833 60.395232,54.4888594 59.1479815,54.4888594 Z M3.76380504,1.51114063 L59.1480697,1.51114063 C60.395232,1.51114063 61.4063351,2.52600521 61.4063351,3.77780729 L61.4063351,7.82225174 L1.50553966,7.82225174 L1.50553966,3.77780729 C1.50553966,2.52591667 2.51655448,1.51114063 3.76380504,1.51114063 Z" id="Shape" fill="#333333"></path>
                        <path d="M4.51653076,5.42222222 L5.26925649,5.42222222 C5.68500667,5.42222222 6.02198221,5.08390451 6.02198221,4.66669618 C6.02198221,4.24948785 5.68491846,3.91117014 5.26925649,3.91117014 L4.51653076,3.91117014 C4.10078058,3.91117014 3.76380504,4.24948785 3.76380504,4.66669618 C3.76380504,5.08390451 4.10078058,5.42222222 4.51653076,5.42222222 Z" id="Path" fill="#333333"></path>
                        <path d="M7.99425945,5.36174826 C8.17650852,5.44232118 8.38407487,5.44232118 8.56632394,5.36174826 C8.65753669,5.32340972 8.74151594,5.26975347 8.81473314,5.2030816 C9.10583766,4.90513889 9.10583766,4.42816493 8.81473314,4.13022222 C8.74151594,4.06355035 8.65753669,4.0098941 8.56632394,3.97155556 C8.38460415,3.88841493 8.17589103,3.88841493 7.99425945,3.97155556 C7.9030467,4.0098941 7.81906746,4.06355035 7.74585026,4.13022222 C7.45474574,4.42816493 7.45474574,4.90513889 7.74585026,5.2030816 C7.81906746,5.26975347 7.9030467,5.32340972 7.99425945,5.36174826 Z" id="Path" fill="#333333"></path>
                        <path d="M10.7568414,5.2030816 C11.0536798,5.4952691 11.5288858,5.4952691 11.8257242,5.2030816 C11.892149,5.12959201 11.9456064,5.04530035 11.9838028,4.95374826 C12.0259689,4.86405556 12.0466108,4.76577431 12.0440526,4.66660764 C12.0458169,4.35963368 11.8624211,4.0821441 11.5799615,3.96438368 C11.2975019,3.84671181 10.9721705,3.9121441 10.7568414,4.13013368 C10.6904166,4.20362326 10.6369592,4.28791493 10.5987628,4.37946701 C10.5184003,4.5623941 10.5184003,4.77073264 10.5987628,4.95365972 C10.6369592,5.04530035 10.6904166,5.12959201 10.7568414,5.2030816 Z" id="Path" fill="#333333"></path>
                        <path d="M15.0551319,5.42222222 L40.6487769,5.42222222 C41.0645271,5.42222222 41.4015026,5.08390451 41.4015026,4.66669618 C41.4015026,4.24948785 41.0645271,3.91117014 40.6487769,3.91117014 L15.0551319,3.91117014 C14.6393818,3.91117014 14.3024062,4.24948785 14.3024062,4.66669618 C14.3024062,5.08390451 14.6393818,5.42222222 15.0551319,5.42222222 Z" id="Path" fill="#333333"></path>
                        <path d="M42.1172072,21.0692647 C42.0988588,21.0306606 42.0771583,20.9937387 42.0524585,20.9589418 C42.0181434,20.9268897 41.9805645,20.8985564 41.9403391,20.874296 C39.1080686,17.8530772 35.1584859,16.1399731 31.0254192,16.1399731 C26.8923525,16.1399731 22.9427698,17.8530772 20.1104993,20.874296 C20.0702739,20.8984679 20.032695,20.9268897 19.9983799,20.9589418 C19.9736801,20.9937387 19.9519796,21.0306606 19.9336312,21.0692647 C14.6512309,26.8206658 14.6512309,35.6785512 19.9336312,41.4299522 C19.9519796,41.4685564 19.9736801,41.5054783 19.9983799,41.5402752 C20.0326067,41.5718845 20.0699211,41.6000408 20.1097936,41.6241241 C22.9432991,44.647822 26.8957928,46.3619887 31.0315059,46.3606614 C35.1672191,46.3593325 39.118566,44.6427752 41.9502191,41.6173064 C41.9876216,41.5954366 42.022907,41.5702022 42.0556342,41.5417804 C42.080334,41.5069835 42.1020345,41.4700616 42.1203829,41.4314575 C47.4027832,35.6800564 47.4027832,26.822171 42.1203829,21.07077 L42.1172072,21.0692647 Z M41.391563,39.9876085 C40.3898106,39.1809939 39.2905823,38.504447 38.1200775,37.9740825 C38.6041931,36.0202335 38.8685689,34.0181293 38.9081768,32.0052231 L44.5350508,32.0052231 C44.37856,34.9379887 43.2750975,37.7399783 41.391563,39.9876085 Z M17.5126119,32.0052231 L23.1394859,32.0052231 C23.179182,34.0181293 23.4435578,36.020322 23.9275852,37.9740825 C22.7571686,38.5040043 21.6579403,39.18002 20.6560997,39.9861033 C18.7728299,37.7389158 17.6694555,34.9374575 17.5126119,32.0052231 Z M20.6560997,22.5116085 C21.6578521,23.3182231 22.7570804,23.99477 23.9275852,24.5251345 C23.4434696,26.4789835 23.1790938,28.4810877 23.1394859,30.4939939 L17.5126119,30.4939939 C17.6691027,27.5612283 18.7725652,24.7592387 20.6560997,22.5116085 Z M30.2711056,24.4798897 C28.7359262,24.4116241 27.218566,24.1215616 25.7658662,23.6185564 C26.7941709,20.4663845 28.4261205,18.2397387 30.2711056,17.7547075 L30.2711056,24.4798897 Z M30.2711056,25.9909418 L30.2711056,30.4940825 L24.6442317,30.4940825 C24.6871916,28.6714522 24.9241331,26.8586502 25.3510864,25.0865772 C26.9391056,25.6244679 28.5961961,25.9293168 30.2711056,25.9917387 L30.2711056,25.9909418 Z M30.2711056,32.0052231 L30.2711056,36.5075668 C28.5961961,36.57052 26.9391056,36.8758116 25.3510864,37.4142335 C24.9240448,35.6416293 24.6871034,33.8283845 24.6442317,32.0052231 L30.2711056,32.0052231 L30.2711056,32.0052231 Z M30.2711056,38.0194158 L30.2711056,44.7438897 C28.4261205,44.2588585 26.7941709,42.0322127 25.7658662,38.8800408 C27.218566,38.3773012 28.7359262,38.0874158 30.2711056,38.0194158 Z M31.7765571,38.0194158 C33.3117365,38.0876814 34.8290967,38.3777439 36.2817965,38.8807491 C35.2534918,42.032921 33.6215423,44.2595668 31.7765571,44.7445981 L31.7765571,38.0194158 Z M31.7765571,36.5082752 L31.7765571,32.0051345 L37.4034311,32.0051345 C37.3604711,33.8277647 37.1235297,35.6405668 36.6965764,37.4126397 C35.1085571,36.8747491 33.4514666,36.5699002 31.7765571,36.5074783 L31.7765571,36.5082752 Z M31.7765571,30.4940825 L31.7765571,25.9917387 C33.4514666,25.9287856 35.1085571,25.6234939 36.6965764,25.085072 C37.1236179,26.8576762 37.3605593,28.670921 37.4034311,30.4940825 L31.7765571,30.4940825 Z M31.7765571,24.4798897 L31.7765571,17.7554158 C33.6215423,18.240447 35.2534918,20.4670929 36.2817965,23.6192647 C34.8290967,24.1220043 33.3117365,24.4118897 31.7765571,24.4798897 Z M35.1300812,18.2918897 C37.0838336,18.921421 38.8696275,19.988171 40.3526727,21.4115668 C39.5310523,22.0584522 38.638861,22.6095356 37.6932124,23.0541033 C37.158374,21.3132856 36.2874422,19.6951866 35.1300812,18.2918897 Z M24.3544503,23.0518897 C23.4088017,22.6072335 22.5166105,22.0562387 21.69499,21.4093533 C23.1780352,19.9859575 24.9638291,18.9192075 26.9175815,18.2896762 C25.7599559,19.6935929 24.8890241,21.3125772 24.3544503,23.0541918 L24.3544503,23.0518897 Z M24.3544503,39.4429002 C24.8895534,41.182921 25.7604852,42.8003116 26.9175815,44.2029002 C24.9638291,43.5733689 23.1780352,42.5066189 21.69499,41.0832231 C22.5168751,40.4379314 23.4090663,39.8883533 24.3544503,39.4452022 L24.3544503,39.4429002 Z M37.6932124,39.4429002 C38.638861,39.8875564 39.5310523,40.4385512 40.3526727,41.0854366 C38.8696275,42.5088325 37.0838336,43.5755825 35.1300812,44.2051137 C36.2871775,42.8025252 37.1581093,41.1851345 37.6932124,39.4451137 L37.6932124,39.4429002 Z M38.9081768,30.4940825 C38.8684807,28.4811762 38.6041049,26.4789835 38.1200775,24.5252231 C39.2904941,23.9953012 40.3897224,23.3192856 41.391563,22.5132022 C43.2748328,24.7603897 44.3782072,27.5618481 44.5350508,30.494171 L38.9081768,30.494171 L38.9081768,30.4940825 Z" id="Shape" fill="#00B05C"></path>
                    </g>
                </g>
            </g>
        </g>
    </g>
</svg>