<?xml version="1.0" encoding="UTF-8"?>
<svg width="55px" height="55px" viewBox="0 0 55 55" version="1.1" xmlns="http://www.w3.org/2000/svg" xmlns:xlink="http://www.w3.org/1999/xlink">
    <!-- Generator: Sketch 58 (84663) - https://sketch.com -->
    <title>cms (2)</title>
    <desc>Created with Sketch.</desc>
    <g id="Page-1" stroke="none" stroke-width="1" fill="none" fill-rule="evenodd">
        <g id="Service" transform="translate(-1321.000000, -507.000000)" fill-rule="nonzero">
            <g id="Group-23" transform="translate(1234.000000, 507.000000)">
                <g id="cms-(2)" transform="translate(87.000000, 0.000000)">
                    <polygon id="Path" fill="#333333" points="6.875 46.40625 8.59375 46.40625 8.59375 48.125 6.875 48.125"></polygon>
                    <polygon id="Path" fill="#333333" points="10.3125 46.40625 12.03125 46.40625 12.03125 48.125 10.3125 48.125"></polygon>
                    <polygon id="Path" fill="#333333" points="13.75 46.40625 15.46875 46.40625 15.46875 48.125 13.75 48.125"></polygon>
                    <polygon id="Path" fill="#333333" points="3.4375 46.40625 5.15625 46.40625 5.15625 48.125 3.4375 48.125"></polygon>
                    <polygon id="Path" fill="#333333" points="6.875 39.53125 8.59375 39.53125 8.59375 41.25 6.875 41.25"></polygon>
                    <polygon id="Path" fill="#333333" points="10.3125 39.53125 12.03125 39.53125 12.03125 41.25 10.3125 41.25"></polygon>
                    <polygon id="Path" fill="#333333" points="3.4375 39.53125 5.15625 39.53125 5.15625 41.25 3.4375 41.25"></polygon>
                    <polygon id="Path" fill="#333333" points="6.875 32.65625 8.59375 32.65625 8.59375 34.375 6.875 34.375"></polygon>
                    <polygon id="Path" fill="#333333" points="3.4375 32.65625 5.15625 32.65625 5.15625 34.375 3.4375 34.375"></polygon>
                    <polygon id="Path" fill="#333333" points="10.3125 32.65625 12.03125 32.65625 12.03125 34.375 10.3125 34.375"></polygon>
                    <polygon id="Path" fill="#333333" points="6.875 25.78125 8.59375 25.78125 8.59375 27.5 6.875 27.5"></polygon>
                    <polygon id="Path" fill="#333333" points="3.4375 25.78125 5.15625 25.78125 5.15625 27.5 3.4375 27.5"></polygon>
                    <polygon id="Path" fill="#333333" points="10.3125 25.78125 12.03125 25.78125 12.03125 27.5 10.3125 27.5"></polygon>
                    <polygon id="Path" fill="#333333" points="6.875 12.03125 8.59375 12.03125 8.59375 13.75 6.875 13.75"></polygon>
                    <polygon id="Path" fill="#333333" points="3.4375 12.03125 5.15625 12.03125 5.15625 13.75 3.4375 13.75"></polygon>
                    <polygon id="Path" fill="#333333" points="10.3125 12.03125 12.03125 12.03125 12.03125 13.75 10.3125 13.75"></polygon>
                    <polygon id="Path" fill="#333333" points="13.75 12.03125 15.46875 12.03125 15.46875 13.75 13.75 13.75"></polygon>
                    <polygon id="Path" fill="#333333" points="6.875 18.90625 8.59375 18.90625 8.59375 20.625 6.875 20.625"></polygon>
                    <polygon id="Path" fill="#333333" points="3.4375 18.90625 5.15625 18.90625 5.15625 20.625 3.4375 20.625"></polygon>
                    <polygon id="Path" fill="#333333" points="10.3125 18.90625 12.03125 18.90625 12.03125 20.625 10.3125 20.625"></polygon>
                    <path d="M30.9375,36.09375 L28.359375,36.09375 C25.9864425,36.09375 24.0625,34.1698075 24.0625,31.796875 C24.0625,29.4239425 25.9864425,27.5 28.359375,27.5 L30.9375,27.5 L30.9375,29.21875 L28.359375,29.21875 C26.9356156,29.21875 25.78125,30.3731156 25.78125,31.796875 C25.78125,33.2206344 26.9356156,34.375 28.359375,34.375 L30.9375,34.375 L30.9375,36.09375 Z" id="Path" fill="#00B05C"></path>
                    <path d="M37.8125,36.09375 L36.09375,36.09375 L36.09375,30.078125 C36.09375,29.6035385 35.7089615,29.21875 35.234375,29.21875 C34.7597885,29.21875 34.375,29.6035385 34.375,30.078125 L34.375,36.09375 L32.65625,36.09375 L32.65625,30.078125 C32.65625,28.6543656 33.8106156,27.5 35.234375,27.5 C36.6581344,27.5 37.8125,28.6543656 37.8125,30.078125 L37.8125,36.09375 Z" id="Path" fill="#00B05C"></path>
                    <path d="M41.25,36.09375 L39.53125,36.09375 L39.53125,30.078125 C39.53125,29.6035385 39.1464615,29.21875 38.671875,29.21875 C38.1972885,29.21875 37.8125,29.6035385 37.8125,30.078125 L37.8125,36.09375 L36.09375,36.09375 L36.09375,30.078125 C36.09375,28.6543656 37.2481156,27.5 38.671875,27.5 C40.0956344,27.5 41.25,28.6543656 41.25,30.078125 L41.25,36.09375 Z" id="Path" fill="#00B05C"></path>
                    <path d="M47.265625,36.09375 L42.96875,36.09375 L42.96875,34.375 L47.265625,34.375 C47.7402115,34.375 48.125,33.9902115 48.125,33.515625 C48.125,33.0410385 47.7402115,32.65625 47.265625,32.65625 L45.546875,32.65625 C44.1231156,32.65625 42.96875,31.5018844 42.96875,30.078125 C42.96875,28.6543656 44.1231156,27.5 45.546875,27.5 L49.84375,27.5 L49.84375,29.21875 L45.546875,29.21875 C45.0722885,29.21875 44.6875,29.6035385 44.6875,30.078125 C44.6875,30.5527115 45.0722885,30.9375 45.546875,30.9375 L47.265625,30.9375 C48.6893844,30.9375 49.84375,32.0918656 49.84375,33.515625 C49.84375,34.9393844 48.6893844,36.09375 47.265625,36.09375 Z" id="Path" fill="#00B05C"></path>
                    <path d="M46.40625,13.75 C45.1839066,13.7537765 44.0559769,14.4087982 43.4466934,15.46875 L30.9375,15.46875 L30.9375,0 L0,0 L0,51.5625 L30.9375,51.5625 L30.9375,44.6875 L51.5625,44.6875 C53.4608459,44.6875 55,43.1483459 55,41.25 L55,13.75 L46.40625,13.75 Z M42.96875,17.1875 L42.96875,18.90625 L18.90625,18.90625 L18.90625,41.25 C18.90625,42.199173 18.136673,42.96875 17.1875,42.96875 C16.238327,42.96875 15.46875,42.199173 15.46875,41.25 L15.46875,17.1875 L42.96875,17.1875 Z M1.71875,5.15625 L3.4375,5.15625 L3.4375,3.4375 L1.71875,3.4375 L1.71875,1.71875 L29.21875,1.71875 L29.21875,3.4375 L27.5,3.4375 L27.5,5.15625 L29.21875,5.15625 L29.21875,8.59375 L1.71875,8.59375 L1.71875,5.15625 Z M1.71875,10.3125 L29.21875,10.3125 L29.21875,15.46875 L1.71875,15.46875 L1.71875,10.3125 Z M1.71875,17.1875 L13.75,17.1875 L13.75,22.34375 L1.71875,22.34375 L1.71875,17.1875 Z M1.71875,24.0625 L13.75,24.0625 L13.75,29.21875 L1.71875,29.21875 L1.71875,24.0625 Z M1.71875,30.9375 L13.75,30.9375 L13.75,36.09375 L1.71875,36.09375 L1.71875,30.9375 Z M1.71875,37.8125 L13.75,37.8125 L13.75,41.25 C13.7533569,41.8550872 13.9186859,42.4484253 14.2279434,42.96875 L1.71875,42.96875 L1.71875,37.8125 Z M29.21875,49.84375 L1.71875,49.84375 L1.71875,44.6875 L29.21875,44.6875 L29.21875,49.84375 Z M53.28125,41.25 C53.28125,42.199173 52.511673,42.96875 51.5625,42.96875 L20.1634216,42.96875 C20.229721,42.8529358 20.2888871,42.7337646 20.3413391,42.6112366 C20.3413391,42.6007462 20.3518295,42.5915146 20.3560257,42.5810242 C20.4315567,42.3972321 20.4907227,42.2071457 20.5331039,42.0132828 C20.544014,41.9641877 20.5536652,41.9159317 20.5620574,41.8668366 C20.6019211,41.663742 20.6229019,41.4572907 20.625,41.25 L20.625,20.625 L44.6875,20.625 L44.6875,17.1875 C44.6875,16.238327 45.457077,15.46875 46.40625,15.46875 L53.28125,15.46875 L53.28125,41.25 Z" id="Shape" fill="#333333"></path>
                    <polygon id="Path" fill="#333333" points="1.71875 53.28125 6.875 53.28125 6.875 55 1.71875 55"></polygon>
                    <polygon id="Path" fill="#333333" points="24.0625 53.28125 29.21875 53.28125 29.21875 55 24.0625 55"></polygon>
                    <polygon id="Path" fill="#333333" points="17.1875 46.40625 27.5 46.40625 27.5 48.125 17.1875 48.125"></polygon>
                    <polygon id="Path" fill="#333333" points="17.1875 12.03125 25.78125 12.03125 25.78125 13.75 17.1875 13.75"></polygon>
                    <polygon id="Path" fill="#00B05C" points="5.15625 3.4375 25.78125 3.4375 25.78125 5.15625 5.15625 5.15625"></polygon>
                </g>
            </g>
        </g>
    </g>
</svg>