<?xml version="1.0" encoding="UTF-8"?>
<svg width="46px" height="55px" viewBox="0 0 46 55" version="1.1" xmlns="http://www.w3.org/2000/svg" xmlns:xlink="http://www.w3.org/1999/xlink">
    <!-- Generator: Sketch 58 (84663) - https://sketch.com -->
    <title>application</title>
    <desc>Created with Sketch.</desc>
    <g id="Page-1" stroke="none" stroke-width="1" fill="none" fill-rule="evenodd">
        <g id="Service" transform="translate(-935.000000, -516.000000)" fill-rule="nonzero">
            <g id="4" transform="translate(871.000000, 516.000000)">
                <g id="application" transform="translate(64.000000, 0.000000)">
                    <path d="M5.79553167,55 L25.7050339,55 C28.8648236,54.9964341 31.4254499,52.4358078 31.4290158,49.2760181 L31.4290158,42.5565611 L32.798914,42.5565611 C33.1835246,42.5566067 33.505238,42.2644632 33.5421606,41.881629 L33.7910294,39.3017308 C34.8690735,39.0154828 35.9020984,38.5807806 36.8604525,38.0101018 L38.8411991,39.6503959 C39.1379315,39.8960669 39.5728617,39.8756383 39.8452602,39.6032353 L42.8046833,36.6438122 C43.077049,36.3713807 43.0974236,35.9364521 42.8517195,35.6397511 L41.2075679,33.6545249 C41.77638,32.696173 42.2120846,31.6648493 42.502681,30.5889593 L45.0462443,30.3408371 C45.4286862,30.3034998 45.7203054,29.981975 45.7203054,29.5977149 L45.7203054,25.4021606 C45.7203054,25.0175544 45.4280849,24.6958966 45.0452489,24.6590385 L42.4654751,24.4101697 C42.1792044,23.3320941 41.7445039,22.2990311 41.1738462,21.3406222 L42.8140158,19.36 C43.058569,19.0647016 43.0396907,18.6321672 42.7703394,18.3592986 L39.848371,15.3998756 C39.576363,15.1241444 39.1386691,15.1022057 38.8404525,15.3493552 L36.8552262,16.9933824 C35.8970463,16.4246969 34.8659398,15.9890376 33.7902828,15.6983937 L33.541414,13.1181222 C33.5043992,12.735671 33.1831521,12.4437652 32.798914,12.4434389 L31.4290158,12.4434389 L31.4290158,5.7239819 C31.4254499,2.56419221 28.8648236,0.00356589307 25.7050339,0 L5.79553167,0 C2.63577037,0.00363431711 0.0751840909,2.5642206 0.0715497738,5.7239819 L0.0715497738,49.2760181 C0.0751840909,52.4357794 2.63577037,54.9963657 5.79553167,55 Z M32.3554299,16.3708371 C32.3865997,16.6942329 32.6233294,16.9603462 32.9408937,17.0289706 C34.2134549,17.3121546 35.4242879,17.8232237 36.5148982,18.5374887 C36.7885588,18.7140403 37.1450842,18.6928402 37.3958937,18.4851018 L39.2663914,16.9355204 L41.2332014,18.9275905 L39.6786425,20.8054299 C39.4683279,21.0593859 39.4495122,21.4212338 39.6323529,21.6956335 C40.3500144,22.7802764 40.8594605,23.9890557 41.1346493,25.260181 C41.2035102,25.5775009 41.4695692,25.8139307 41.7927828,25.8450226 L44.2270928,26.0797059 L44.2270928,28.9199208 L41.8293665,29.1549774 C41.5064861,29.1864274 41.2408645,29.4227813 41.1721041,29.739819 C40.8890291,31.0123944 40.3779971,32.2232393 39.6637104,33.3138235 C39.4872201,33.5874561 39.5084189,33.9439092 39.7160973,34.1946946 L41.2679186,36.0686765 L39.2697511,38.0668439 L37.3958937,36.5150226 C37.1418856,36.3046856 36.7799657,36.2859194 36.5055656,36.4688575 C35.4208368,37.1864432 34.2120315,37.6958825 32.9408937,37.9711538 C32.6235737,38.0400147 32.3871439,38.3060737 32.356052,38.6292873 L32.120871,41.0633484 L29.2815271,41.0633484 L29.0468439,38.6291629 C29.015752,38.3059493 28.7793222,38.0398903 28.4620023,37.9710294 C27.189441,37.6878454 25.978608,37.1767763 24.8879977,36.4625113 C24.6143371,36.2859597 24.2578117,36.3071598 24.0070023,36.5148982 L22.1330204,38.0667195 L20.1343552,36.068552 L21.6863009,34.1945701 C21.8965769,33.940586 21.9153419,33.5787392 21.7324661,33.3043665 C21.0148226,32.2197139 20.505378,31.0109381 20.2301697,29.739819 C20.1613088,29.4224991 19.8952498,29.1860693 19.5720362,29.1549774 L17.1378507,28.9202941 L17.1378507,26.0803281 L19.5720362,25.8456448 C19.8952498,25.8145529 20.1613088,25.5781231 20.2301697,25.2608032 C20.5132679,23.9880596 21.0243412,22.7770482 21.7386878,21.6863009 C21.9152131,21.4126949 21.8940647,21.0562432 21.6864253,20.8054299 L20.1344796,18.931448 L22.1326471,16.9332805 L24.006629,18.4851018 C24.260637,18.6954388 24.622557,18.7142051 24.896957,18.531267 C25.9816624,17.8136376 27.1904762,17.3041948 28.461629,17.0289706 C28.7789489,16.9601097 29.0153787,16.6940507 29.0464706,16.3708371 L29.2815271,13.9366516 L32.120871,13.9366516 L32.3554299,16.3708371 Z M5.79553167,1.49321267 L25.7050339,1.49321267 C28.040543,1.49581858 29.9331973,3.38847283 29.9358032,5.7239819 L29.9358032,7.46606335 L28.1937217,7.46606335 C27.7813824,7.46606335 27.4471154,7.80033039 27.4471154,8.21266968 C27.4471154,8.62500898 27.7813824,8.95927602 28.1937217,8.95927602 L29.9358032,8.95927602 L29.9358032,12.4434389 L28.6033597,12.4434389 C28.2187968,12.4434574 27.8971556,12.7355843 27.8602376,13.118371 L27.6113688,15.6982692 C26.5333247,15.9845172 25.5002998,16.4192194 24.5419457,16.9898982 L22.5613235,15.3496041 C22.2645706,15.1038569 21.829553,15.1242871 21.557138,15.3967647 L18.5977149,18.3561878 C18.3253492,18.6286193 18.3049746,19.0635479 18.5506787,19.3602489 L20.1947059,21.3454751 C19.6260565,22.3036444 19.1903596,23.3346989 18.8995928,24.4102941 L16.3194457,24.6591629 C15.9366589,24.6960809 15.644532,25.0177221 15.6445136,25.4022851 L15.6445136,29.5978394 C15.6444679,29.98245 15.9366115,30.3041634 16.3194457,30.341086 L18.8992195,30.5899548 C19.1856264,31.6680235 19.6204077,32.7010792 20.1910973,33.6595023 L18.5508032,35.6401244 C18.305099,35.9368254 18.3254736,36.371754 18.5978394,36.6441855 L21.5572624,39.6036086 C21.8296774,39.8760862 22.264695,39.8965164 22.561448,39.6507692 L24.5466742,38.0067421 C25.5049755,38.5753591 26.5362129,39.0108951 27.611991,39.3013575 L27.8608597,41.881629 C27.8977548,42.2641786 28.2190352,42.5562224 28.6033597,42.5565611 L29.9358032,42.5565611 L29.9358032,44.5475113 L1.56476244,44.5475113 L1.56476244,8.95927602 L21.8475679,8.95927602 C22.2599072,8.95927602 22.5941742,8.62500898 22.5941742,8.21266968 C22.5941742,7.80033039 22.2599072,7.46606335 21.8475679,7.46606335 L1.56476244,7.46606335 L1.56476244,5.7239819 C1.56743678,3.38850122 3.46005099,1.495887 5.79553167,1.49321267 Z M1.56476244,46.040724 L29.9358032,46.040724 L29.9358032,49.2760181 C29.9331973,51.6115272 28.040543,53.5041814 25.7050339,53.5067873 L5.79553167,53.5067873 C3.46005099,53.504113 1.56743678,51.6114988 1.56476244,49.2760181 L1.56476244,46.040724 Z" id="Shape" fill="#333333"></path>
                    <path d="M24.2983032,8.95927602 L25.6813914,8.95927602 C26.0937307,8.95927602 26.4279977,8.62500898 26.4279977,8.21266968 C26.4279977,7.80033039 26.0937307,7.46606335 25.6813914,7.46606335 L24.2983032,7.46606335 C23.8859639,7.46606335 23.5516968,7.80033039 23.5516968,8.21266968 C23.5516968,8.62500898 23.8859639,8.95927602 24.2983032,8.95927602 Z" id="Path" fill="#333333"></path>
                    <path d="M15.7502828,52.3868778 C17.1934703,52.3868778 18.363405,51.2169432 18.363405,49.7737557 C18.363405,48.3305681 17.1934703,47.1606335 15.7502828,47.1606335 C14.3070953,47.1606335 13.1371606,48.3305681 13.1371606,49.7737557 C13.138738,51.2162893 14.3077491,52.3853005 15.7502828,52.3868778 Z M15.7502828,48.6538462 C16.3687917,48.6538462 16.8701923,49.1552467 16.8701923,49.7737557 C16.8701923,50.3922646 16.3687917,50.8936652 15.7502828,50.8936652 C15.1317739,50.8936652 14.6303733,50.3922646 14.6303733,49.7737557 C14.6310591,49.155531 15.1320581,48.6545319 15.7502828,48.6538462 L15.7502828,48.6538462 Z" id="Shape" fill="#333333"></path>
                    <path d="M21.7859729,27.5 C21.7859729,32.4237435 25.7774556,36.4152262 30.7011991,36.4152262 C35.6249426,36.4152262 39.6164253,32.4237435 39.6164253,27.5 C39.6164253,22.5762565 35.6249426,18.5847738 30.7011991,18.5847738 C25.7797582,18.5903283 21.7915274,22.5785591 21.7859729,27.5 Z M30.7011991,20.0779864 C34.800264,20.0779864 38.1232127,23.4009351 38.1232127,27.5 C38.1232127,31.5990649 34.800264,34.9220136 30.7011991,34.9220136 C26.6021342,34.9220136 23.2791855,31.5990649 23.2791855,27.5 C23.2837801,23.4028397 26.6040388,20.082581 30.7011991,20.0779864 L30.7011991,20.0779864 Z" id="Shape" fill="#00B05C"></path>
                    <path d="M29.1923077,30.1592873 C29.4823609,30.4424714 29.945388,30.4424714 30.2354412,30.1592873 L34.5886538,25.9091063 C34.7815191,25.7232005 34.8600067,25.448218 34.7943299,25.1885172 C34.7286531,24.9288163 34.528879,24.7242046 34.2708236,24.6523339 C34.0127682,24.5804632 33.7359868,24.65235 33.5455204,24.8407127 L29.7138122,28.5815837 L27.8190498,26.7317421 C27.5235027,26.4467985 27.0533458,26.4539324 26.76658,26.7477117 C26.4798141,27.041491 26.4840404,27.5116831 26.7760407,27.8002602 L29.1923077,30.1592873 Z" id="Path" fill="#00B05C"></path>
                    <path d="M13.3144796,25.1357466 L12.2829186,25.1357466 C11.8705793,25.1357466 11.5363122,25.4700136 11.5363122,25.8823529 C11.5363122,26.2946922 11.8705793,26.6289593 12.2829186,26.6289593 L13.3144796,26.6289593 C13.7268189,26.6289593 14.061086,26.2946922 14.061086,25.8823529 C14.061086,25.4700136 13.7268189,25.1357466 13.3144796,25.1357466 Z" id="Path" fill="#00B05C"></path>
                    <path d="M4.47963801,26.6289593 L8.9813009,26.6289593 C9.3936402,26.6289593 9.72790724,26.2946922 9.72790724,25.8823529 C9.72790724,25.4700136 9.3936402,25.1357466 8.9813009,25.1357466 L4.47963801,25.1357466 C4.06729872,25.1357466 3.73303167,25.4700136 3.73303167,25.8823529 C3.73303167,26.2946922 4.06729872,26.6289593 4.47963801,26.6289593 Z" id="Path" fill="#00B05C"></path>
                    <path d="M13.3144796,31.3574661 L8.54988688,31.3574661 C8.13754758,31.3574661 7.80328054,31.6917331 7.80328054,32.1040724 C7.80328054,32.5164117 8.13754758,32.8506787 8.54988688,32.8506787 L13.3144796,32.8506787 C13.7268189,32.8506787 14.061086,32.5164117 14.061086,32.1040724 C14.061086,31.6917331 13.7268189,31.3574661 13.3144796,31.3574661 Z" id="Path" fill="#00B05C"></path>
                    <path d="M4.47963801,32.8506787 L5.24826923,32.8506787 C5.66060852,32.8506787 5.99487557,32.5164117 5.99487557,32.1040724 C5.99487557,31.6917331 5.66060852,31.3574661 5.24826923,31.3574661 L4.47963801,31.3574661 C4.06729872,31.3574661 3.73303167,31.6917331 3.73303167,32.1040724 C3.73303167,32.5164117 4.06729872,32.8506787 4.47963801,32.8506787 Z" id="Path" fill="#00B05C"></path>
                    <path d="M12.8167421,38.3257919 C12.8167421,38.7381311 13.1510091,39.0723982 13.5633484,39.0723982 L17.0475113,39.0723982 C17.4598506,39.0723982 17.7941176,38.7381311 17.7941176,38.3257919 C17.7941176,37.9134526 17.4598506,37.5791855 17.0475113,37.5791855 L13.5633484,37.5791855 C13.1510091,37.5791855 12.8167421,37.9134526 12.8167421,38.3257919 Z" id="Path" fill="#00B05C"></path>
                    <path d="M10.2256448,37.5791855 L4.47963801,37.5791855 C4.06729872,37.5791855 3.73303167,37.9134526 3.73303167,38.3257919 C3.73303167,38.7381311 4.06729872,39.0723982 4.47963801,39.0723982 L10.2256448,39.0723982 C10.6379841,39.0723982 10.9722511,38.7381311 10.9722511,38.3257919 C10.9722511,37.9134526 10.6379841,37.5791855 10.2256448,37.5791855 L10.2256448,37.5791855 Z" id="Path" fill="#00B05C"></path>
                    <path d="M9.83031674,19.9095023 L14.5588235,19.9095023 C14.9711628,19.9095023 15.3054299,19.5752352 15.3054299,19.1628959 C15.3054299,18.7505566 14.9711628,18.4162896 14.5588235,18.4162896 L9.83031674,18.4162896 C9.41797745,18.4162896 9.08371041,18.7505566 9.08371041,19.1628959 C9.08371041,19.5752352 9.41797745,19.9095023 9.83031674,19.9095023 Z" id="Path" fill="#00B05C"></path>
                    <path d="M4.47963801,19.9095023 L6.49261312,19.9095023 C6.90495242,19.9095023 7.23921946,19.5752352 7.23921946,19.1628959 C7.23921946,18.7505566 6.90495242,18.4162896 6.49261312,18.4162896 L4.47963801,18.4162896 C4.06729872,18.4162896 3.73303167,18.7505566 3.73303167,19.1628959 C3.73303167,19.5752352 4.06729872,19.9095023 4.47963801,19.9095023 Z" id="Path" fill="#00B05C"></path>
                </g>
            </g>
        </g>
    </g>
</svg>