<?xml version="1.0" encoding="UTF-8"?>
<svg width="58px" height="58px" viewBox="0 0 58 58" version="1.1" xmlns="http://www.w3.org/2000/svg" xmlns:xlink="http://www.w3.org/1999/xlink">
    <!-- Generator: Sketch 58 (84663) - https://sketch.com -->
    <title>machine-learning</title>
    <desc>Created with Sketch.</desc>
    <g id="Page-1" stroke="none" stroke-width="1" fill="none" fill-rule="evenodd">
        <g id="Service" transform="translate(-923.000000, -224.000000)" fill-rule="nonzero">
            <g id="Group-12" transform="translate(870.000000, 224.000000)">
                <g id="machine-learning" transform="translate(53.000000, 0.000000)">
                    <path d="M52.0914761,21.2666667 L52.0673597,21.2763333 C51.804973,9.60673333 41.962578,0.306433333 30.1011559,1.0034 C19.5651726,1.62303333 11.0269938,10.3742667 10.6266611,20.9428333 C10.4655634,25.1884333 11.5797422,29.1575667 13.6132391,32.5061 C17.7766985,39.3617 20.2577963,47.1076 20.2577963,55.1319 L20.2577963,57.0333333 L35.6923077,57.0333333 L35.6923077,49.3 L49.1975052,49.3 L49.1975052,36.7333333 L56.9147609,36.7333333 L52.0914761,21.2666667 Z" id="Path"></path>
                    <path d="M19.4706362,22.2333333 L10.6112266,22.2333333 C10.3555925,22.2333333 10.109605,22.3348333 9.92921414,22.5165667 L6.35323077,26.1 L5.61044491,26.1 C5.21107692,24.9777 4.14995426,24.1666667 2.89397089,24.1666667 C1.29842827,24.1666667 0,25.4678 0,27.0666667 C0,28.6655333 1.29842827,29.9666667 2.89397089,29.9666667 C4.14995426,29.9666667 5.21107692,29.1556333 5.61044491,28.0333333 L6.75259875,28.0333333 C7.00823285,28.0333333 7.25422037,27.9318333 7.43461123,27.7501 L11.0105946,24.1666667 L19.4706362,24.1666667 C19.8700042,25.2889667 20.9311268,26.1 22.1871102,26.1 C22.9202495,26.1 23.5820042,25.8167667 24.0923077,25.3653333 L28.0232848,27.5567667 C27.9972391,27.7124 27.975052,27.8699667 27.975052,28.0333333 C27.975052,29.6322 29.2734802,30.9333333 30.8690229,30.9333333 C32.4645655,30.9333333 33.7629938,29.6322 33.7629938,28.0333333 C33.7629938,27.8699667 33.7408067,27.7124 33.7147609,27.5567667 L37.645738,25.3653333 C38.1560416,25.8167667 38.8177963,26.1 39.5509356,26.1 C41.1464782,26.1 42.4449064,24.7988667 42.4449064,23.2 C42.4449064,21.9414 41.6355593,20.8780667 40.5155925,20.4778667 L40.5155925,16.2545 C41.6355593,15.8543 42.4449064,14.7909667 42.4449064,13.5323667 C42.4449064,11.9335 41.1464782,10.6323667 39.5509356,10.6323667 C38.8177963,10.6323667 38.1560416,10.9156 37.645738,11.3670333 L33.7147609,9.1756 C33.7408067,9.02093333 33.7629938,8.86336667 33.7629938,8.7 C33.7629938,7.10113333 32.4645655,5.8 30.8690229,5.8 C29.2734802,5.8 27.975052,7.10113333 27.975052,8.7 C27.975052,8.86336667 27.9972391,9.02093333 28.0232848,9.17656667 L24.0923077,11.368 C23.5820042,10.9165667 22.9202495,10.6333333 22.1871102,10.6333333 C20.9311268,10.6333333 19.8700042,11.4443667 19.4706362,12.5666667 L11.0105946,12.5666667 L7.43461123,8.98323333 C7.25422037,8.8015 7.00823285,8.7 6.75259875,8.7 L5.61044491,8.7 C5.21107692,7.5777 4.14995426,6.76666667 2.89397089,6.76666667 C1.29842827,6.76666667 0,8.0678 0,9.66666667 C0,11.2655333 1.29842827,12.5666667 2.89397089,12.5666667 C4.14995426,12.5666667 5.21107692,11.7556333 5.61044491,10.6333333 L6.35323077,10.6333333 L9.92921414,14.2167667 C10.1105696,14.3985 10.3555925,14.5 10.6112266,14.5 L19.4706362,14.5 C19.7619626,15.3187667 20.4053888,15.9635333 21.2224532,16.2554667 L21.2224532,17.4 L5.61044491,17.4 C5.21107692,16.2777 4.14995426,15.4666667 2.89397089,15.4666667 C1.29842827,15.4666667 0,16.7678 0,18.3666667 C0,19.9655333 1.29842827,21.2666667 2.89397089,21.2666667 C4.14995426,21.2666667 5.21107692,20.4556333 5.61044491,19.3333333 L21.2224532,19.3333333 L21.2224532,20.4778667 C20.4053888,20.7698 19.7619626,21.4145667 19.4706362,22.2333333 L19.4706362,22.2333333 Z M2.89397089,28.0333333 C2.36244491,28.0333333 1.92931393,27.5993 1.92931393,27.0666667 C1.92931393,26.5340333 2.36244491,26.1 2.89397089,26.1 C3.42549688,26.1 3.85862786,26.5340333 3.85862786,27.0666667 C3.85862786,27.5993 3.42549688,28.0333333 2.89397089,28.0333333 Z M2.89397089,10.6333333 C2.36244491,10.6333333 1.92931393,10.1993 1.92931393,9.66666667 C1.92931393,9.13403333 2.36244491,8.7 2.89397089,8.7 C3.42549688,8.7 3.85862786,9.13403333 3.85862786,9.66666667 C3.85862786,10.1993 3.42549688,10.6333333 2.89397089,10.6333333 Z M2.89397089,19.3333333 C2.36244491,19.3333333 1.92931393,18.8993 1.92931393,18.3666667 C1.92931393,17.8340333 2.36244491,17.4 2.89397089,17.4 C3.42549688,17.4 3.85862786,17.8340333 3.85862786,18.3666667 C3.85862786,18.8993 3.42549688,19.3333333 2.89397089,19.3333333 Z M22.1871102,24.1666667 C21.6555842,24.1666667 21.2224532,23.7326333 21.2224532,23.2 C21.2224532,22.6673667 21.6555842,22.2333333 22.1871102,22.2333333 C22.7186362,22.2333333 23.1517672,22.6673667 23.1517672,23.2 C23.1517672,23.7326333 22.7186362,24.1666667 22.1871102,24.1666667 Z M24.0923077,15.6986667 L28.0232848,17.8901 C27.9972391,18.0457333 27.975052,18.2033 27.975052,18.3666667 C27.975052,18.5300333 27.9972391,18.6876 28.0232848,18.8432333 L24.0923077,21.0346667 C23.8183451,20.793 23.5019376,20.6035333 23.1517672,20.4778667 L23.1517672,16.2545 C23.5019376,16.1298 23.8193098,15.9413 24.0923077,15.6986667 L24.0923077,15.6986667 Z M37.645738,21.0346667 L33.7147609,18.8432333 C33.7408067,18.6876 33.7629938,18.5300333 33.7629938,18.3666667 C33.7629938,18.2033 33.7408067,18.0457333 33.7147609,17.8901 L37.645738,15.6986667 C37.9197006,15.9403333 38.2361081,16.1298 38.5862786,16.2554667 L38.5862786,20.4788333 C38.2361081,20.6035333 37.918736,20.7920333 37.645738,21.0346667 L37.645738,21.0346667 Z M25.0328482,22.7234333 L28.9638254,20.532 C29.2377879,20.7736667 29.5541954,20.9631333 29.9043659,21.0888 L29.9043659,25.3121667 C29.5541954,25.4378333 29.2368233,25.6263333 28.9638254,25.8689667 L25.0328482,23.6775333 C25.058894,23.5209333 25.0810811,23.3633667 25.0810811,23.2 C25.0810811,23.0366333 25.058894,22.8790667 25.0328482,22.7234333 L25.0328482,22.7234333 Z M30.8690229,17.4 C31.4005489,17.4 31.8336798,17.8340333 31.8336798,18.3666667 C31.8336798,18.8993 31.4005489,19.3333333 30.8690229,19.3333333 C30.3374969,19.3333333 29.9043659,18.8993 29.9043659,18.3666667 C29.9043659,17.8340333 30.3374969,17.4 30.8690229,17.4 Z M31.8336798,21.0888 C32.1838503,20.9631333 32.5012225,20.7746333 32.7742204,20.532 L36.7051975,22.7234333 C36.6791518,22.8790667 36.6569647,23.0366333 36.6569647,23.2 C36.6569647,23.3633667 36.6791518,23.5209333 36.7051975,23.6765667 L32.7742204,25.868 C32.5002578,25.6263333 32.1838503,25.4368667 31.8336798,25.3112 L31.8336798,21.0888 Z M36.7051975,14.0099 L32.7742204,16.2013333 C32.5002578,15.9596667 32.1838503,15.7702 31.8336798,15.6445333 L31.8336798,11.4211667 C32.1838503,11.2955 32.5012225,11.107 32.7742204,10.8643667 L36.7051975,13.0558 C36.6791518,13.2124 36.6569647,13.3699667 36.6569647,13.5333333 C36.6569647,13.6967 36.6791518,13.8542667 36.7051975,14.0099 L36.7051975,14.0099 Z M29.9043659,15.6445333 C29.5541954,15.7702 29.2368233,15.9587 28.9638254,16.2013333 L25.0328482,14.0099 C25.058894,13.8542667 25.0810811,13.6967 25.0810811,13.5333333 C25.0810811,13.3699667 25.058894,13.2124 25.0328482,13.0567667 L28.9638254,10.8653333 C29.2377879,11.107 29.5541954,11.2964667 29.9043659,11.4221333 L29.9043659,15.6445333 Z M30.8690229,29 C30.3374969,29 29.9043659,28.5659667 29.9043659,28.0333333 C29.9043659,27.5007 30.3374969,27.0666667 30.8690229,27.0666667 C31.4005489,27.0666667 31.8336798,27.5007 31.8336798,28.0333333 C31.8336798,28.5659667 31.4005489,29 30.8690229,29 Z M39.5509356,24.1666667 C39.0194096,24.1666667 38.5862786,23.7326333 38.5862786,23.2 C38.5862786,22.6673667 39.0194096,22.2333333 39.5509356,22.2333333 C40.0824615,22.2333333 40.5155925,22.6673667 40.5155925,23.2 C40.5155925,23.7326333 40.0824615,24.1666667 39.5509356,24.1666667 Z M39.5509356,12.5666667 C40.0824615,12.5666667 40.5155925,13.0007 40.5155925,13.5333333 C40.5155925,14.0659667 40.0824615,14.5 39.5509356,14.5 C39.0194096,14.5 38.5862786,14.0659667 38.5862786,13.5333333 C38.5862786,13.0007 39.0194096,12.5666667 39.5509356,12.5666667 Z M30.8690229,7.73333333 C31.4005489,7.73333333 31.8336798,8.16736667 31.8336798,8.7 C31.8336798,9.23263333 31.4005489,9.66666667 30.8690229,9.66666667 C30.3374969,9.66666667 29.9043659,9.23263333 29.9043659,8.7 C29.9043659,8.16736667 30.3374969,7.73333333 30.8690229,7.73333333 Z M22.1871102,12.5666667 C22.7186362,12.5666667 23.1517672,13.0007 23.1517672,13.5333333 C23.1517672,14.0659667 22.7186362,14.5 22.1871102,14.5 C21.6555842,14.5 21.2224532,14.0659667 21.2224532,13.5333333 C21.2224532,13.0007 21.6555842,12.5666667 22.1871102,12.5666667 Z" id="Shape" fill="#00B05C"></path>
                    <path d="M20.2577963,58 L35.6923077,58 C36.2247983,58 36.6569647,57.5669333 36.6569647,57.0333333 L36.6569647,50.2666667 L49.1975052,50.2666667 C49.7299958,50.2666667 50.1621622,49.8336 50.1621622,49.3 L50.1621622,37.7 L56.9147609,37.7 C57.2215218,37.7 57.5099543,37.5540333 57.6922744,37.3056 C57.8745946,37.0571667 57.9276507,36.7381667 57.8360083,36.4443 L53.0262287,21.0221 C52.8332973,15.1563667 50.3618462,9.74303333 46.0479002,5.7536 C41.6837921,1.71873333 35.9971393,-0.3074 30.0480998,0.0386666667 C23.2009647,0.439833333 16.8573805,4.205 13.0788191,10.1113333 L14.7033015,11.1543667 C18.1500208,5.76713333 23.928316,2.33353333 30.1619293,1.96813333 C35.5842661,1.64816667 40.7654387,3.49933333 44.7388607,7.1746 C48.7257879,10.8605 50.9859792,15.8823333 51.1036674,21.3140333 C51.107526,21.4812667 51.1567235,21.6388333 51.239684,21.7751333 L55.6028274,35.7666667 L49.1975052,35.7666667 C48.6650146,35.7666667 48.2328482,36.1997333 48.2328482,36.7333333 L48.2328482,40.6 L45.3388773,40.6 C43.7433347,40.6 42.4449064,39.2988667 42.4449064,37.7 L40.5155925,37.7 C40.5155925,40.3651 42.6793181,42.5333333 45.3388773,42.5333333 L48.2328482,42.5333333 L48.2328482,48.3333333 L35.6923077,48.3333333 C35.159817,48.3333333 34.7276507,48.7664 34.7276507,49.3 L34.7276507,56.0666667 L21.2224532,56.0666667 L21.2224532,55.1319 C21.2224532,47.3106 18.8764075,39.3133667 14.4370561,32.0044 C13.4550353,30.3881333 12.7132141,28.6433 12.2308857,26.8192 L10.3652391,27.3141333 C10.8948358,29.3180333 11.7099709,31.2339667 12.7884574,33.0097333 C17.0445239,40.0161333 19.2931393,47.6653667 19.2931393,55.1319 L19.2931393,57.0333333 C19.2931393,57.5669333 19.7253056,58 20.2577963,58 Z" id="Path" fill="#333333"></path>
                </g>
            </g>
        </g>
    </g>
</svg>